<svg id="Capa_1" enable-background="new 0 0 512 512" height="512" viewBox="0 0 512 512" width="512" xmlns="http://www.w3.org/2000/svg"><path d="m389.935 404.413c-6.739.001-12.709-4.83-13.921-11.695l-12.435-70.46h-30.007c-7.816 0-14.153-6.337-14.153-14.153 0-7.817 6.337-14.153 14.153-14.153h41.882c6.867 0 12.744 4.93 13.937 11.693l14.498 82.154c1.359 7.697-3.78 15.039-11.478 16.397-.832.146-1.66.217-2.476.217z" fill="#cb775a"/><path d="m415.712 235.721c0 74.971-73.652 107.946-164.505 107.946s-243.707-37.102-243.707-98.888 93.834-144.805 219.566-144.805 188.646 60.776 188.646 135.747z" fill="#b36d3a"/><path d="m412.575 261.074c2.052-7.85 3.137-16.292 3.137-25.353 0-74.972-62.914-135.748-188.646-135.748s-219.566 83.021-219.566 144.806c83.266 24.959 250.805 51.465 405.075 16.295z" fill="#cb775a"/><path d="m115.784 123.108c-65.928 29.064-108.284 80.16-108.284 121.671 18.666 5.595 41.576 11.265 67.613 16.304-9.11-46.654 7.92-102.313 40.671-137.975z" fill="#d2996f"/><path d="m283.819 412.025c-.002 0-.003 0-.005 0-7.817-.003-14.151-6.342-14.147-14.158l.025-61.912c.002-3.807 1.536-7.452 4.258-10.114l25.031-24.477c5.589-5.464 14.549-5.364 20.014.225 5.464 5.589 5.364 14.549-.224 20.014l-20.776 20.315-.022 55.96c-.004 7.814-6.341 14.147-14.154 14.147z" fill="#cb775a"/><path d="m200.801 412.027c-.424 0-.851-.02-1.282-.058-7.785-.699-13.53-7.576-12.83-15.361l5.558-61.912c.356-3.963 2.363-7.593 5.531-10.001l35.665-27.112c6.222-4.731 15.102-3.521 19.832 2.702s3.52 15.101-2.702 19.832l-30.692 23.332-5 55.691c-.661 7.353-6.835 12.886-14.08 12.887z" fill="#cb775a"/><path d="m504.5 282.897c0 34.372-39.133 58.312-87.405 58.312s-87.405-23.94-87.405-58.312 39.133-62.236 87.405-62.236 87.405 27.864 87.405 62.236z" fill="#e1b89a"/><path d="m391.651 223.349c-35.859 7.759-61.96 31.48-61.96 59.549 0 34.372 39.132 58.313 87.405 58.313 2.492 0 4.953-.079 7.392-.205-69.465-18.709-74.849-83.821-32.837-117.657z" fill="#d2996f"/><path d="m417.506 292.807c0 6.358-6.472 11.512-14.456 11.512s-14.456-5.154-14.456-11.512 6.472-11.512 14.456-11.512c7.984.001 14.456 5.154 14.456 11.512z" fill="#fff"/><path d="m465.216 292.807c0 6.358 6.472 11.512 14.456 11.512s14.456-5.154 14.456-11.512-6.472-11.512-14.456-11.512c-7.984.001-14.456 5.154-14.456 11.512z" fill="#fff"/><path d="m258.778 278.013c-15.288-54.643 19.725-137.753 80.865-155.996-24.548-11.734-55.036-19.33-91.463-21.437-46.036 30.184-93.928 118.054-64.92 174.883 24.307 1.821 49.639 2.772 75.518 2.55z" fill="#d2996f"/><path d="m483.25 232.78c-4.763-3.391-9.949-6.36-15.451-8.91.887-15.034 7.499-34.62 23.214-42.016 3.747-1.764 5.355-6.232 3.592-9.98-1.765-3.748-6.234-5.354-9.98-3.592-16.896 7.953-24.731 23.598-28.328 35.321-1.456 4.746-2.476 9.783-3.044 14.753-10.048-3.021-20.818-4.766-31.921-5.121-.083-.494-.156-.992-.245-1.484 3.001-12.117 9.652-24.388 21.356-29.897 3.747-1.764 5.355-6.232 3.592-9.98-1.765-3.748-6.234-5.356-9.98-3.592-10.091 4.75-16.932 12.246-21.586 20.009-3.937-10.043-9.186-19.521-15.723-28.364-2.463-3.331-7.157-4.035-10.49-1.572-3.33 2.462-4.034 7.159-1.572 10.489 9.455 12.79 15.842 27.108 19.072 42.671-.144.728-.281 1.458-.405 2.189-20.467 1.837-39.465 8.437-54.407 19.076-13.361 9.513-22.394 21.415-26.399 34.477-19.575 1.799-39.55 2.872-59.872 3.197-10.235-49.729 21.009-122.336 74.36-140.37 8.853 4.415 16.979 9.451 24.299 15.105 3.277 2.532 7.988 1.928 10.521-1.351 2.532-3.278 1.927-7.988-1.352-10.52-8.748-6.757-18.504-12.705-29.171-17.826-.323-.182-.659-.338-1.006-.471-26.293-12.429-58.069-19.865-94.041-21.94-.001 0-.002 0-.003 0-6.92-.399-13.99-.606-21.21-.606-59.098 0-116.397 17.994-161.342 50.667-41.159 29.915-65.728 67.911-65.728 101.637v.028c0 .043.002.086.003.128.065 19.008 11.911 36.619 35.22 52.346 1.286.868 2.745 1.284 4.188 1.284 2.409 0 4.775-1.159 6.224-3.306 2.317-3.434 1.411-8.095-2.022-10.412-14.127-9.532-23.063-19.436-26.716-29.556 58.852 16.313 143.369 30.277 233.94 30.277 23.488 0 47.399-.947 71.36-3.029-.001.119-.006.238-.006.358 0 14.794 6.245 28.472 17.834 39.543-5.321 1.956-10.914 3.711-16.763 5.259l.751-.735c2.962-2.896 3.016-7.644.119-10.606-2.896-2.961-7.643-3.016-10.605-.119l-20.775 20.315c-1.442 1.41-2.256 3.342-2.257 5.359l-.022 55.96c-.001 3.667-2.985 6.65-6.655 6.65-3.668-.001-6.651-2.987-6.65-6.655l.024-61.912c.001-1.778.73-3.512 2.002-4.755l25.031-24.477c2.962-2.896 3.016-7.645.119-10.606-2.897-2.96-7.644-3.016-10.606-.119l-25.032 24.476c-4.137 4.046-6.512 9.686-6.515 15.473v.037c-3.653.114-7.325.179-10.984.179-2.988 0-6.058-.046-9.188-.128l13.094-9.954c3.297-2.507 3.939-7.212 1.432-10.509-2.507-3.298-7.212-3.938-10.509-1.432l-30.693 23.332c-1.679 1.276-2.743 3.2-2.931 5.3l-5 55.692c-.305 3.397-3.208 6.058-6.609 6.058-.2 0-.402-.009-.612-.028-1.77-.159-3.372-.997-4.511-2.361s-1.678-3.089-1.52-4.86l5.559-61.913c.167-1.858 1.114-3.571 2.6-4.701l35.664-27.112c3.297-2.507 3.939-7.212 1.432-10.51-2.507-3.297-7.212-3.938-10.51-1.432l-35.664 27.113c-3.999 3.041-6.796 7.383-7.952 12.216-41.656-6.109-82.138-16.972-112.066-30.146-3.791-1.669-8.217.052-9.886 3.843s.052 8.217 3.843 9.886c31.732 13.968 72.88 25.016 116.536 31.347l-4.495 50.066c-.518 5.761 1.239 11.378 4.947 15.817 3.707 4.439 8.922 7.168 14.675 7.685.649.059 1.309.089 1.96.089 11.276-.001 20.54-8.478 21.548-19.717l4.438-49.432c8.509.522 16.702.79 24.418.79 3.656 0 7.325-.062 10.978-.171l-.018 46.868c-.005 11.939 9.705 21.656 21.653 21.661 11.935-.001 21.648-9.71 21.652-21.645l.021-51.029c17.958-3.053 34.253-7.704 48.559-13.859 1.376.821 2.783 1.615 4.226 2.375l10.35 58.653c1.83 10.368 10.789 17.892 21.304 17.892h.003c1.263 0 2.534-.112 3.779-.332 5.695-1.005 10.659-4.168 13.976-8.906s4.59-10.484 3.585-16.18l-6.763-38.326c4.133.35 8.33.542 12.584.542 25.151 0 48.553-6.208 65.893-17.479 18.707-12.157 29.011-29.322 29.011-48.33 0-19.117-10.21-36.916-28.75-50.117zm-467.97 6.464c2.696-27.329 24.883-58.978 59.263-83.97 5.172-3.76 10.522-7.31 16.026-10.652-19.243 32.254-28.454 71.527-24.464 107.021-21.683-4.487-38.81-8.949-50.825-12.399zm132.129 25.301c-24.601-2.799-46.623-6.256-65.782-9.847-3.086-20.26-1.279-42.469 5.311-64.583 6.925-23.238 18.471-44.24 33.414-60.858 32.797-14.205 69.354-21.783 106.714-21.783.123 0 .244.002.366.003-39.452 36.55-73.272 106.461-55.795 159.515-8.042-.711-16.119-1.524-24.228-2.447zm102.013 6.009c-20.122-.042-40.559-.799-61.245-2.261-10.133-23.323-7.957-54.114 6.293-87.304 12.945-30.149 34.163-57.769 55.779-72.758 25.883 1.71 49.316 6.337 69.747 13.732-51.31 26.8-79.705 96.611-70.574 148.591zm145.979 123.518c-1.019 1.456-2.544 2.428-4.297 2.737-.388.068-.781.103-1.171.103-3.224 0-5.972-2.312-6.534-5.499l-8.674-49.154c4.544 1.484 9.276 2.727 14.166 3.707l7.612 43.134c.308 1.751-.082 3.517-1.102 4.972zm21.694-60.362c-6.952 0-13.639-.515-19.987-1.48-.342-.081-.694-.133-1.05-.166-9.982-1.607-19.094-4.347-27.009-8.017-.52-.333-1.077-.609-1.668-.806-2.814-1.381-5.469-2.879-7.945-4.492-.395-.326-.819-.61-1.267-.847-13.137-8.98-20.978-21.177-20.978-35.004 0-27.168 29.049-49.766 66.985-54.01.09 4.246.556 8.229 1.433 11.664.865 3.391 3.915 5.646 7.261 5.646.614 0 1.239-.076 1.861-.235 4.014-1.025 6.436-5.109 5.411-9.123-.609-2.384-.955-5.344-1.006-8.643 12.175.211 23.677 2.292 33.922 5.845.242 2.315.61 4.507 1.121 6.509.865 3.391 3.915 5.646 7.261 5.646.614 0 1.239-.076 1.861-.235 2.563-.654 4.472-2.559 5.254-4.893 17.378 10.049 28.445 25.067 28.445 41.828 0 28.968-34.352 50.813-79.905 50.813zm-7.353-64.991c-4.143 0-7.5 3.358-7.5 7.5v5.105c0 4.142 3.357 7.5 7.5 7.5s7.5-3.358 7.5-7.5v-5.105c0-4.142-3.357-7.5-7.5-7.5zm61.505 0c-4.143 0-7.5 3.358-7.5 7.5v5.105c0 4.142 3.357 7.5 7.5 7.5 4.142 0 7.5-3.358 7.5-7.5v-5.105c0-4.142-3.357-7.5-7.5-7.5zm-17.719 7.176c-3.124-2.72-7.86-2.396-10.582.729-.364.418-1.168 1.12-2.452 1.12s-2.089-.703-2.453-1.122c-2.723-3.123-7.46-3.448-10.582-.726-3.123 2.722-3.447 7.459-.727 10.582 3.471 3.982 8.487 6.266 13.762 6.266 5.276 0 10.293-2.284 13.763-6.268 2.721-3.123 2.394-7.861-.729-10.581z"/></svg>