<svg height="512" viewBox="0 0 64 64" width="512" xmlns="http://www.w3.org/2000/svg"><g id="Filled_outline" data-name="Filled outline"><path d="m30 29h4v8h-4z" fill="#fcf05a"/><path d="m30 57h4v4h-4z" fill="#fcf05a"/><g fill="#f9bb4b"><path d="m30 45v-4h10v-4h-16v12h10v4h-10v4h16v-12z"/><path d="m51 3h4v6h-4z" transform="matrix(-1 0 0 -1 106 12)"/><path d="m51 13h4v6h-4z" transform="matrix(-1 0 0 -1 106 32)"/><path d="m47.672 24.379h5.657v4.243h-5.657z" transform="matrix(.707 -.707 .707 .707 -3.947 43.471)"/><path d="m38 29h6v4h-6z" transform="matrix(-1 0 0 -1 82 62)"/><path d="m9 3h4v6h-4z"/><path d="m9 13h4v6h-4z"/><path d="m11.379 23.672h4.243v5.657h-4.243z" transform="matrix(.707 -.707 .707 .707 -14.784 17.308)"/><path d="m20 29h6v4h-6z"/></g><path d="m55 2h-4a1 1 0 0 0 -1 1v6a1 1 0 0 0 1 1h1v2h-1a1 1 0 0 0 -1 1v6a1 1 0 0 0 1 1h1v2.586l-.293-.293a1 1 0 0 0 -1.414 0l-4 4a1 1 0 0 0 0 1.414l.469.469-1.762 1.058v-.234a1 1 0 0 0 -1-1h-6a1 1 0 0 0 -1 1v1h-2v-1a1 1 0 0 0 -1-1h-4a1 1 0 0 0 -1 1v1h-2v-1a1 1 0 0 0 -1-1h-6a1 1 0 0 0 -1 1v.234l-1.762-1.058.469-.469a1 1 0 0 0 0-1.414l-4-4a1 1 0 0 0 -1.414 0l-.293.293v-2.586h1a1 1 0 0 0 1-1v-6a1 1 0 0 0 -1-1h-1v-2h1a1 1 0 0 0 1-1v-6a1 1 0 0 0 -1-1h-4a1 1 0 0 0 -1 1v6a1 1 0 0 0 1 1h1v2h-1a1 1 0 0 0 -1 1v6a1 1 0 0 0 1 1h1v4.586l-.707.707a1 1 0 0 0 0 1.414l4 4a1 1 0 0 0 1.414 0l1.073-1.073 3.22 1.932v1.434a1 1 0 0 0 1 1h6a1 1 0 0 0 1-1v-1h2v4h-5a1 1 0 0 0 -1 1v12a1 1 0 0 0 1 1h9v2h-9a1 1 0 0 0 -1 1v4a1 1 0 0 0 1 1h5v3a1 1 0 0 0 1 1h4a1 1 0 0 0 1-1v-3h5a1 1 0 0 0 1-1v-12a1 1 0 0 0 -1-1h-9v-2h9a1 1 0 0 0 1-1v-4a1 1 0 0 0 -1-1h-5v-4h2v1a1 1 0 0 0 1 1h6a1 1 0 0 0 1-1v-1.434l3.22-1.932 1.073 1.073a1 1 0 0 0 1.414 0l4-4a1 1 0 0 0 0-1.414l-.707-.707v-4.586h1a1 1 0 0 0 1-1v-6a1 1 0 0 0 -1-1h-1v-2h1a1 1 0 0 0 1-1v-6a1 1 0 0 0 -1-1zm-45 2h2v4h-2zm0 10h2v4h-2zm4 14.586-2.586-2.586 1.586-1.586 2.586 2.586zm11 3.414h-4v-2h4zm6-2h2v6h-2zm2 30h-2v-2h2zm6-22v2h-9a1 1 0 0 0 -1 1v4a1 1 0 0 0 1 1h9v2h-2v2h2v2h-2v2h2v2h-14v-2h9a1 1 0 0 0 1-1v-4a1 1 0 0 0 -1-1h-9v-2h2v-2h-2v-2h2v-2h-2v-2zm4-6h-4v-2h4zm7-3.414-1.586-1.586 2.586-2.586 1.586 1.586zm4-10.586h-2v-4h2zm0-10h-2v-4h2z"/></g></svg>