<svg id="Capa_1" enable-background="new 0 0 511.857 511.857" height="512" viewBox="0 0 511.857 511.857" width="512" xmlns="http://www.w3.org/2000/svg"><g><path d="m379.353 315.53c4.183-18.526 18.191-33.079 36.319-38.743 18.562-5.8 36.537-16.425 51.834-31.721 44.495-44.495 49.476-111.655 11.126-150.006-38.351-38.351-105.51-33.37-150.006 11.126-15.297 15.297-25.921 33.271-31.721 51.834-5.664 18.128-20.218 32.136-38.743 36.319-23.513 5.309-46.666 17.712-65.902 36.947-48.105 48.105-35.094 102.316 6.368 143.778s95.673 54.473 143.778 6.368c19.235-19.236 31.638-42.389 36.947-65.902z" fill="#e0b799"/><path d="m342.406 381.431c16.198-16.198 27.531-35.178 33.882-54.808-7.563-26.93-25.053-50.527-47.869-69.339 31.51-38.56 34.248-94.563-.671-129.482-3.233-3.233-6.708-6.164-10.378-8.806-9.367 12.146-16.217 25.424-20.466 39.023-5.664 18.128-20.218 32.136-38.743 36.319-23.513 5.309-46.666 17.712-65.902 36.947-48.105 48.105-35.094 102.316 6.368 143.778s95.674 54.473 143.779 6.368z" fill="#d99a84"/><path d="m223.377 350.314c-15.942-15.942-25.17-32.56-26.687-48.059-1.554-15.876 5.092-30.996 20.318-46.222 13.962-13.962 30.857-23.491 48.862-27.556 30.32-6.846 55.013-29.844 64.441-60.021 17.667-56.546 88.675-83.544 123.57-48.649 11.234 11.235 16.685 27.344 15.35 45.362-2.644 35.64-30.491 67.741-63.998 78.21-30.176 9.429-53.174 34.121-60.022 64.44-4.064 18.005-13.593 34.901-27.555 48.863-13.629 13.629-27.666 20.54-41.722 20.54-.451-.122-23.318 2.331-52.557-26.908z" fill="#d99a84"/><path d="m354.484 284.037c-7.466-9.721-16.273-18.679-26.065-26.752 26.612-32.566 32.699-77.573 12.914-111.814-4.641 6.952-8.415 14.644-11.021 22.986-9.429 30.177-34.121 53.176-64.441 60.021-18.004 4.065-34.9 13.593-48.862 27.556-15.226 15.226-21.872 30.345-20.318 46.222 1.517 15.499 10.745 32.117 26.687 48.059 29.239 29.239 52.106 26.785 52.559 26.908 14.056 0 28.093-6.911 41.722-20.54 13.962-13.962 23.49-30.858 27.555-48.863 1.902-8.433 5.06-16.428 9.27-23.783z" fill="#d2896f"/><ellipse cx="198.621" cy="113.74" fill="#fbf1cf" rx="62.611" ry="72.642"/><path d="m260.511 102.687c-41.989 2.04-81.062 30.942-96.439 71.63 9.903 7.618 21.776 12.066 34.549 12.066 34.579 0 62.611-32.523 62.611-72.642 0-3.758-.246-7.45-.721-11.054z" fill="#fae0bd"/><ellipse cx="255.169" cy="200.381" fill="#fbf1cf" rx="72.642" ry="62.611" transform="matrix(.707 -.707 .707 .707 -66.954 239.121)"/><path d="m253.696 252.815c-18.526-4.183-33.079-18.191-38.743-36.319-5.8-18.562-16.425-36.537-31.721-51.834-44.495-44.495-111.655-49.476-150.006-11.126-38.351 38.351-33.37 105.51 11.125 150.006 15.296 15.297 33.271 25.921 51.834 31.721 18.128 5.664 32.136 20.217 36.319 38.743 5.309 23.513 17.712 46.666 36.947 65.902 48.105 48.105 102.316 35.094 143.778-6.368s54.473-95.673 6.368-143.778c-19.235-19.236-42.388-31.638-65.901-36.947z" fill="#e0b799"/><g><g fill="#fff"><ellipse cx="109.011" cy="250.387" rx="23.03" ry="28.92" transform="matrix(.707 -.707 .707 .707 -145.121 150.418)"/><ellipse cx="219.853" cy="361.229" rx="23.03" ry="28.919" transform="matrix(.707 -.707 .707 .707 -191.034 261.264)"/></g></g><path d="m138.706 186.85c3.996 1.081 8.117-1.282 9.199-5.279 1.083-3.998-1.281-8.117-5.279-9.199-17.354-4.699-31.928-1.855-43.312 8.452-3.071 2.78-3.306 7.523-.526 10.593 2.783 3.074 7.527 3.303 10.593.526 7.456-6.751 17.047-8.418 29.325-5.093zm4.374 72.771c2.929 2.929 7.678 2.929 10.606 0 8.292-8.291 8.292-21.782 0-30.073-8.309-8.31-21.762-8.312-30.073 0-2.929 2.929-2.929 7.678 0 10.606 2.929 2.929 7.678 2.929 10.606 0 2.449-2.448 6.411-2.449 8.86 0s2.448 6.412 0 8.86c-2.928 2.929-2.928 7.678.001 10.607zm45.503 49.654c-.284-4.132-3.87-7.239-7.996-6.969-3.429.238-6.788-1.018-9.211-3.442-2.423-2.423-3.677-5.78-3.441-9.211.284-4.132-2.837-7.712-6.969-7.996-4.127-.29-7.712 2.836-7.996 6.969-.533 7.758 2.31 15.356 7.8 20.845 5.489 5.489 13.089 8.335 20.845 7.8 4.132-.284 7.252-3.864 6.968-7.996zm41.503 37.352c2.929 2.929 7.678 2.929 10.606 0 8.292-8.291 8.292-21.782 0-30.073-8.29-8.29-21.78-8.29-30.073 0-2.929 2.929-2.929 7.678-.001 10.607 2.929 2.928 7.678 2.929 10.607 0 2.443-2.443 6.418-2.443 8.86 0 2.449 2.449 2.448 6.412 0 8.86-2.929 2.928-2.929 7.677.001 10.606zm-152.654-167.845c3.308-2.493 3.969-7.196 1.476-10.503-2.494-3.308-7.195-3.969-10.503-1.476-8.86 6.677-15.767 16.519-20.512 27.108-1.98-2.667-5.569-3.787-8.799-2.494-3.846 1.539-5.717 5.903-4.179 9.749 1.032 2.58 3.803 6.148 7.311 9.757-1.651 7.386-2.216 14.526-1.618 20.628.407 4.148 4.101 7.135 8.196 6.732 4.122-.404 7.136-4.074 6.732-8.196-.229-2.337-.193-5.073.102-8.053 1.134.72 2.235 1.354 3.276 1.875 3.705 1.853 8.21.35 10.062-3.354 1.853-3.705.351-8.21-3.354-10.062-1.992-.996-4.239-2.576-6.431-4.356 3.542-10.354 9.582-20.829 18.241-27.355zm184.481 211.22c-3.565 2.11-4.744 6.711-2.634 10.275 2.099 3.546 6.695 4.753 10.274 2.633 7.069-4.185 14.563-11.468 21.108-21.245 2.58 1.592 5.24 3.346 7.99 5.268 3.409 2.384 8.082 1.529 10.443-1.85 2.374-3.395 1.546-8.071-1.85-10.444-3.151-2.203-6.213-4.212-9.198-6.038 5.611-11.837 9.684-25.982 10.78-41.844.285-4.132-2.833-7.714-6.965-7.999-4.148-.287-7.715 2.832-8 6.965-.964 13.944-4.452 25.953-9.026 35.78-3.771-1.727-7.431-3.132-11-4.215-3.965-1.2-8.151 1.036-9.354 5s1.036 8.152 5 9.355c2.538.77 5.153 1.749 7.853 2.932-5.241 7.485-10.843 12.716-15.421 15.427zm-65.492 23.35c-2.306 3.441-1.387 8.1 2.054 10.406 12.101 8.11 29.105 11.748 44.044 11.463 4.142-.075 7.438-3.494 7.362-7.635-.075-4.142-3.514-7.462-7.635-7.362-15.875.288-28.698-4.421-35.419-8.926-3.44-2.306-8.1-1.387-10.406 2.054zm287.513-323.596c-17.797-17.796-42.328-27.737-69.074-27.989-.023 0-.048 0-.072 0-4.108 0-7.459 3.312-7.498 7.429-.039 4.142 3.287 7.531 7.43 7.57 22.793.215 43.607 8.595 58.607 23.596 35.365 35.366 30.375 97.9-11.125 139.399-13.919 13.919-30.783 24.247-48.767 29.866-20.844 6.512-36.706 23.468-41.397 44.25-2.813 12.457-7.713 24.56-14.421 35.849-.797-10.319-3.451-20.47-7.901-30.308 1.123-3.321 2.069-6.655 2.811-9.947 6.261-27.718 27.314-50.3 54.942-58.934 37.341-11.665 66.461-47.335 69.241-84.813 1.5-20.228-4.725-38.418-17.525-51.22-38.589-38.589-113.414-10.74-134.652 47.667-3.227-7.173-7.624-13.541-13.463-19.184 5.786-11.523 13.458-22.099 22.859-31.499 13.701-13.702 30.286-23.942 47.961-29.614 3.943-1.265 6.115-5.489 4.85-9.433-1.267-3.945-5.492-6.116-9.434-4.85-19.936 6.397-38.604 17.909-53.983 33.29-9.882 9.882-18.056 20.946-24.4 32.968-9.349-5.375-19.941-8.249-30.913-8.664 6.078-48.133-26.656-91.588-69.389-91.588-42.816 0-75.128 43.33-69.463 90.941-36.711-9.959-75.15-2.392-101.236 23.694-41.213 41.215-36.222 113.265 11.126 160.613 15.626 15.626 34.61 27.237 54.9 33.577 15.752 4.922 27.723 17.657 31.24 33.236 5.306 23.499 17.072 45.762 34.027 64.385 2.788 3.063 7.531 3.286 10.595.496 3.063-2.788 3.285-7.532.497-10.595-15.21-16.706-25.752-36.62-30.487-57.59-4.692-20.782-20.555-37.738-41.398-44.25-17.985-5.62-34.849-15.947-48.768-29.866-40.157-40.157-47.661-102.862-11.125-139.398 16.981-16.981 40.715-25.268 66.841-23.328 26.541 1.968 52.309 14.204 72.559 34.454 13.918 13.919 24.246 30.782 29.866 48.768 6.512 20.842 23.468 36.705 44.25 41.398 23.082 5.211 44.607 17.291 62.25 34.934 19.064 19.063 56.604 70.201-6.368 133.172-32.392 32.394-73.166 47.076-112.393 23.012-3.531-2.166-8.149-1.059-10.314 2.471-2.167 3.53-1.06 8.148 2.471 10.315 45.255 27.765 93.15 12.504 130.844-25.19 18.763-18.763 31.177-39.256 36.457-59.975 15.688-18.073 26.637-39.356 31.678-61.687 3.518-15.58 15.488-28.315 31.239-33.236 20.289-6.339 39.273-17.95 54.901-33.577 47.347-47.35 52.337-119.401 11.124-160.615zm-295.399 69.603c-12.948-12.948-27.746-22.721-43.253-29.255-9.049-41.214 17.352-81.505 53.34-81.505 34.46 0 60.727 37.263 54.089 77.561-23.91 3.932-45.389 18.604-58.762 38.933-1.748-1.957-3.551-3.871-5.414-5.734zm66.813 86.14c-15.579-3.518-28.314-15.488-33.236-31.24-4.042-12.934-10.233-25.332-18.232-36.673 21.472-37.902 70.917-49.703 97.352-23.267 21.487 21.488 18.306 59.633-7.094 85.032-5.181 5.182-10.985 9.525-17.284 12.949-6.987-2.853-14.17-5.145-21.506-6.801zm83.823 55.719c-4.102-5.75-8.859-11.349-14.27-16.759-9.727-9.727-20.535-17.934-32.102-24.456 4.231-2.977 8.228-6.327 11.946-10.045 17.742-17.743 26.424-40.775 25.621-62.376 2.901-5.411 5.29-11.08 7.105-16.887 16.018-51.272 80.422-76.268 111.107-45.582 9.667 9.668 14.346 23.697 13.174 39.504-2.343 31.587-27.053 61.701-58.756 71.605-31.062 9.705-55.106 34.356-63.825 64.996z"/></g></svg>