<?xml version="1.0" encoding="iso-8859-1"?>
<!-- Generator: Adobe Illustrator 19.0.0, SVG Export Plug-In . SVG Version: 6.00 Build 0)  -->
<svg version="1.1" id="Capa_1" xmlns="http://www.w3.org/2000/svg" xmlns:xlink="http://www.w3.org/1999/xlink" x="0px" y="0px"
	 viewBox="0 0 512 512" style="enable-background:new 0 0 512 512;" xml:space="preserve">
<circle style="fill:#FAA330;" cx="94.52" cy="153.45" r="87.02"/>
<path style="fill:#D99337;" d="M36.539,218.334c15.392,13.765,35.708,22.138,57.983,22.138c48.06,0,87.021-38.961,87.021-87.021
	c0-29.05-14.238-54.771-36.112-70.577c-38.912,21.595-70.639,54.283-92.024,94.938C46.558,190.83,40.931,204.388,36.539,218.334z"/>
<circle style="fill:#FABED5;" cx="94.52" cy="153.45" r="43.862"/>
<path style="fill:#E6A8BF;" d="M138.384,153.45c0-20.389-13.913-37.525-32.761-42.442c-19.885,17.559-36.78,38.679-50.003,62.697
	c7.318,14.026,21.987,23.607,38.902,23.607C118.746,197.312,138.384,177.674,138.384,153.45z"/>
<circle style="fill:#FAA330;" cx="417.48" cy="153.45" r="87.02"/>
<path style="fill:#D99337;" d="M475.462,218.334c-15.392,13.765-35.708,22.138-57.983,22.138c-48.06,0-87.021-38.961-87.021-87.021
	c0-29.05,14.238-54.771,36.112-70.577c38.912,21.595,70.639,54.283,92.024,94.938C465.443,190.83,471.069,204.388,475.462,218.334z"
	/>
<circle style="fill:#FABED5;" cx="417.48" cy="153.45" r="43.862"/>
<path style="fill:#F0F0F0;" d="M346.575,106.187C319.85,92.438,289.269,84.63,256,84.63s-63.849,7.809-90.575,21.557L56.112,315.683
	c1.473,15.112,4.477,30.412,9.132,45.692c33.121,108.721,127.5,81.047,190.756,81.047s157.636,27.674,190.756-81.047
	c4.655-15.28,7.66-30.58,9.133-45.692L346.575,106.187z"/>
<path style="fill:#E6A8BF;" d="M373.617,153.45c0-20.389,13.913-37.525,32.761-42.442c19.885,17.559,36.78,38.679,50.003,62.697
	c-7.318,14.026-21.987,23.607-38.902,23.607C393.255,197.312,373.617,177.674,373.617,153.45z"/>
<path id="SVGCleanerId_0" style="fill:#FAA330;" d="M212.186,203.561c0,66.597-51.059,120.582-114.039,120.582
	c-14.845,0-29.029-2.995-42.036-8.46C47.473,226.779,91.9,144.002,165.425,106.187C193.772,128.128,212.186,163.572,212.186,203.561
	z"/>
<g>
	<path style="fill:#D9D9D9;" d="M67.132,367.214c5.525,16.22,13.519,32.037,25.05,44.843c0.109,0.121,0.219,0.235,0.328,0.355
		c11.652,12.861,27.241,22.192,43.935,27.16c17.096,5.088,35.115,6.22,52.863,5.963c5.81,0,11.637-0.314,17.437-0.622
		c-42.427-3.29-82.28-20.444-101.501-83.539c-4.655-15.28-7.66-30.58-9.132-45.693c-3.69-37.979,2.311-74.837,16.121-107.552
		l-56.12,107.553c1.473,15.112,4.477,30.412,9.132,45.692c0.468,1.536,0.952,3.036,1.444,4.517
		C66.834,366.333,66.983,366.774,67.132,367.214z"/>
	<path style="fill:#D9D9D9;" d="M205.426,106.187C226.702,95.242,250.427,88.078,276,85.605c-2.281,0.221-4.582-0.363-6.848-0.547
		c-2.529-0.205-5.058-0.279-7.592-0.346c-1.846-0.049-3.697-0.082-5.559-0.082c-33.269,0-63.849,7.809-90.575,21.557l-37.156,71.208
		C147.247,147.338,173.609,122.551,205.426,106.187z"/>
</g>
<g>
	<path id="SVGCleanerId_0_1_" style="fill:#FAA330;" d="M212.186,203.561c0,66.597-51.059,120.582-114.039,120.582
		c-14.845,0-29.029-2.995-42.036-8.46C47.473,226.779,91.9,144.002,165.425,106.187
		C193.772,128.128,212.186,163.572,212.186,203.561z"/>
</g>
<path style="fill:#D99337;" d="M56.112,315.682L56.112,315.682c12.703,5.338,26.531,8.312,40.999,8.448
	c-0.38-2.821-0.725-5.638-0.999-8.447l0,0l0,0c-7.644-78.669,26.268-152.533,85.12-194.7c-4.824-5.425-10.11-10.387-15.805-14.795
	c-35.472,18.244-64.169,46.955-83.404,81.769c-0.124,0.224-0.248,0.447-0.371,0.671c-7.826,14.286-14.057,29.591-18.519,45.615
	c-0.453,1.626-0.894,3.256-1.31,4.896c-4.541,17.903-6.882,36.651-6.775,55.838C55.086,301.828,55.437,308.736,56.112,315.682z"/>
<path style="fill:#FAA330;" d="M455.889,315.682c-13.007,5.466-27.19,8.46-42.036,8.46c-62.979,0-114.039-53.985-114.039-120.582
	c0-39.99,18.413-75.433,46.76-97.375C420.1,144.002,464.528,226.778,455.889,315.682z"/>
<path d="M229.811,279.783c-2.726-3.119-7.465-3.437-10.583-0.711c-3.119,2.726-3.438,7.464-0.711,10.583
	c5.336,6.105,13.196,9.607,21.565,9.607c5.768,0,11.293-1.664,15.918-4.697c4.625,3.033,10.151,4.697,15.918,4.697
	c8.369,0,16.229-3.501,21.565-9.607c2.726-3.119,2.408-7.857-0.711-10.583s-7.857-2.407-10.583,0.711
	c-2.488,2.846-6.231,4.479-10.271,4.479s-7.784-1.632-10.272-4.479c-0.024-0.027-0.05-0.05-0.074-0.077
	c-1.41-1.567-3.465-2.48-5.573-2.48c-1.972,0-3.902,0.801-5.296,2.195c-0.118,0.118-0.239,0.237-0.35,0.362
	c-2.488,2.846-6.231,4.479-10.271,4.479S232.299,282.629,229.811,279.783z"/>
<path d="M256,264.903c5.871,0,11.439-1.201,16.435-3.354c5.243-2.259,3.645-10.079-2.064-10.079H241.63
	c-5.709,0-7.308,7.82-2.064,10.079C244.561,263.702,250.13,264.903,256,264.903z"/>
<path d="M155.264,256.082v16.875c0,4.142,3.358,7.5,7.5,7.5s7.5-3.358,7.5-7.5v-16.875c0-4.142-3.358-7.5-7.5-7.5
	S155.264,251.94,155.264,256.082z"/>
<path d="M349.237,248.582c-4.142,0-7.5,3.358-7.5,7.5v16.875c0,4.142,3.358,7.5,7.5,7.5s7.5-3.358,7.5-7.5v-16.875
	C356.737,251.94,353.379,248.582,349.237,248.582z"/>
<path d="M54.126,238.925c-6.146,24.994-8.039,51.146-5.48,77.49c1.542,15.827,4.713,31.69,9.423,47.15
	c13.113,43.046,36.611,69.803,71.836,81.801c29.999,10.218,63.862,7.992,93.742,6.029c11.487-0.755,22.338-1.468,32.353-1.468
	c10.01,0,20.854,0.711,32.335,1.465c12.468,0.818,25.527,1.675,38.684,1.675c23.648,0,47.604-2.771,68.952-13.515
	c3.7-1.862,5.19-6.371,3.328-10.071c-1.861-3.7-6.371-5.19-10.071-3.328c-29.577,14.885-66.943,12.434-99.911,10.27
	c-11.733-0.77-22.816-1.497-33.317-1.497c-10.507,0-21.596,0.729-33.336,1.5c-29.87,1.963-60.756,3.993-87.922-5.26
	c-30.33-10.331-50.716-33.874-62.323-71.973c-3.241-10.638-5.704-21.474-7.358-32.347c1.172,0.349,2.353,0.67,3.535,0.984
	c9.563,2.538,19.611,3.816,29.553,3.816c67.017,0,121.539-57.457,121.539-128.082c0-9.217-0.937-18.44-2.808-27.465
	c-0.821-3.954-4.902-6.641-8.867-5.821c-3.999,0.829-6.651,4.865-5.821,8.867c1.656,7.986,2.496,16.202,2.496,24.419
	c0,62.354-47.793,113.082-106.539,113.082c-8.797,0-17.596-1.117-26.089-3.417c-2.939-0.786-5.845-1.704-8.701-2.753
	c-0.059-0.021-0.117-0.045-0.176-0.066c-1.916-25.035,0.461-49.816,6.939-73.392c0.048-0.14,0.101-0.277,0.14-0.42
	c13.43-48.545,43.745-89.828,84.276-115.521c1.593-1.01,3.199-2,4.822-2.959c1.686-0.995,3.38-1.976,5.1-2.919
	c0.031-0.017,0.063-0.033,0.094-0.05c0.908,0.77,1.804,1.554,2.686,2.354c7.612,6.912,14.232,14.889,19.701,23.592
	c1.719,2.735,3.323,5.549,4.799,8.423c1.846,3.594,6.512,5.086,10.099,3.243c3.684-1.893,5.136-6.414,3.243-10.099
	c-4.763-9.271-10.665-17.997-17.537-25.835c-2.692-3.07-5.514-6.03-8.485-8.832c23.929-10.53,49.758-15.861,76.94-15.861
	c27.181,0,53.011,5.331,76.941,15.862c-0.425,0.4-0.839,0.812-1.258,1.219c-12.769,12.397-22.853,27.6-29.544,44.081
	c-6.462,15.917-9.824,33.092-9.824,50.271c0,41.933,19.221,79.225,48.866,102.603c13.287,10.478,28.807,18.181,45.258,22.193
	c19.763,4.819,40.437,4.318,59.953-1.362c0.182-0.053,0.367-0.099,0.549-0.153c-1.654,10.872-4.118,21.709-7.359,32.347
	c-6.469,21.234-15.826,38.22-27.809,50.486c-2.895,2.962-2.84,7.711,0.123,10.605c1.459,1.426,3.35,2.136,5.241,2.136
	c1.948,0,3.896-0.755,5.365-2.259c13.679-14,24.253-33.042,31.429-56.597c4.71-15.462,7.881-31.326,9.423-47.154
	c2.56-26.341,0.667-52.492-5.48-77.486c14.906-7.041,27.676-17.823,37.198-31.483C506.146,191.554,512,172.886,512,153.455
	c0-52.119-42.402-94.521-94.521-94.521c-29.544,0-57.099,13.703-74.956,36.956c-26.83-12.438-55.89-18.756-86.523-18.756
	c-30.631,0-59.689,6.317-86.519,18.752c-17.857-23.25-45.413-36.953-74.96-36.953C42.402,58.933,0,101.336,0,153.455
	c0,19.431,5.854,38.1,16.928,53.987C26.45,221.102,39.22,231.884,54.126,238.925z M387.259,313.081
	c-16.041-4.391-30.861-12.796-43.089-24.042c-22.562-20.75-36.855-51.374-36.855-85.473c0-14.573,2.72-29.16,7.966-42.757
	c6.659-17.25,17.445-32.956,31.458-45.055c0.012-0.011,0.025-0.022,0.037-0.032c0.223-0.192,0.448-0.381,0.672-0.571
	c0.031,0.017,0.063,0.033,0.094,0.05c3.374,1.85,6.681,3.823,9.93,5.884c40.525,25.692,70.837,66.972,84.267,115.515
	c0.04,0.143,0.093,0.28,0.14,0.42c6.477,23.576,8.854,48.357,6.939,73.392c-0.059,0.021-0.117,0.044-0.175,0.066
	c-17.52,6.437-36.79,7.853-55.073,4.112C391.537,314.172,389.335,313.649,387.259,313.081z M436.586,184.405
	c-4.425-8.022-9.35-15.772-14.752-23.171c-8.946-12.257-19.085-23.401-30.269-33.29c6.777-6.885,16.072-10.853,25.914-10.853
	c20.05,0,36.362,16.312,36.362,36.362C453.841,166.319,447.242,177.874,436.586,184.405z M417.479,73.933
	c43.848,0,79.521,35.673,79.521,79.521c0,16.349-4.922,32.051-14.233,45.409c-7.529,10.802-17.466,19.468-29.036,25.39
	c-2.878-9.013-6.327-17.843-10.338-26.442c15.681-9.097,25.449-25.756,25.449-44.356c0-28.321-23.041-51.362-51.362-51.362
	c-14.362,0-27.883,5.996-37.522,16.32c-7.484-5.692-15.366-10.86-23.604-15.475c-0.064-0.036-0.127-0.074-0.192-0.11
	C371.205,84.598,393.57,73.933,417.479,73.933z M90.163,161.239c-5.4,7.398-10.324,15.147-14.749,23.166
	c-10.656-6.532-17.255-18.086-17.255-30.951c0-20.05,16.312-36.362,36.362-36.362c9.841,0,19.137,3.968,25.914,10.853
	C109.25,137.835,99.11,148.981,90.163,161.239z M94.521,73.933c23.912,0,46.278,10.664,61.322,28.891
	c-0.059,0.033-0.116,0.068-0.175,0.101c-8.246,4.618-16.135,9.79-23.625,15.487c-9.64-10.324-23.161-16.32-37.523-16.32
	c-28.321,0-51.362,23.041-51.362,51.362c0,18.601,9.768,35.259,25.449,44.356c-4.011,8.6-7.46,17.429-10.338,26.442
	c-11.571-5.922-21.507-14.588-29.037-25.39C19.922,185.506,15,169.803,15,153.455C15,109.607,50.673,73.933,94.521,73.933z"/>
<g>
</g>
<g>
</g>
<g>
</g>
<g>
</g>
<g>
</g>
<g>
</g>
<g>
</g>
<g>
</g>
<g>
</g>
<g>
</g>
<g>
</g>
<g>
</g>
<g>
</g>
<g>
</g>
<g>
</g>
</svg>
