<?xml version="1.0" encoding="iso-8859-1"?>
<!-- Generator: Adobe Illustrator 19.0.0, SVG Export Plug-In . SVG Version: 6.00 Build 0)  -->
<svg version="1.1" id="Capa_1" xmlns="http://www.w3.org/2000/svg" xmlns:xlink="http://www.w3.org/1999/xlink" x="0px" y="0px"
	 viewBox="0 0 512 512" style="enable-background:new 0 0 512 512;" xml:space="preserve">
<path style="fill:#653A4B;" d="M85.333,59.733H153.6c4.71,0,8.533,3.823,8.533,8.533V102.4c0,4.71-3.823,8.533-8.533,8.533H85.333
	c-4.71,0-8.533-3.823-8.533-8.533V68.267C76.8,63.556,80.623,59.733,85.333,59.733z"/>
<path style="fill:#F1BBC5;" d="M424.166,96.367L355.9,28.1c-1.596-1.604-3.772-2.5-6.033-2.5h-102.4c-2.261,0-4.437,0.896-6.033,2.5
	l-68.267,68.267c-3.328,3.337-3.328,8.738,0,12.066c1.604,1.604,3.772,2.5,6.033,2.5h238.933c4.71,0,8.533-3.823,8.533-8.533
	C426.667,100.139,425.762,97.963,424.166,96.367z"/>
<path style="fill:#E88D9E;" d="M42.667,93.867h426.667c23.561,0,42.667,19.106,42.667,42.667v307.2
	c0,23.561-19.106,42.667-42.667,42.667H42.667C19.106,486.4,0,467.294,0,443.733v-307.2C0,112.973,19.106,93.867,42.667,93.867z"/>
<path style="fill:#D9415D;" d="M298.667,128c-89.54,0-162.133,72.593-162.133,162.133s72.593,162.133,162.133,162.133
	S460.8,379.674,460.8,290.133C460.698,200.636,388.164,128.102,298.667,128z"/>
<g>
	<path style="fill:#F1BBC5;" d="M298.667,162.133c-70.69,0-128,57.31-128,128s57.31,128,128,128s128-57.31,128-128
		C426.59,219.477,369.323,162.21,298.667,162.133z"/>
	<path style="fill:#F1BBC5;" d="M59.733,93.867H42.667C19.115,93.892,0.026,112.981,0,136.533v76.8h59.733
		c32.99,0,59.733-26.743,59.733-59.733S92.723,93.867,59.733,93.867z"/>
</g>
<circle style="fill:#D9415D;" cx="59.733" cy="153.6" r="25.6"/>
<circle style="fill:#653A4B;" cx="59.733" cy="256" r="25.6"/>
<path style="fill:#D9415D;" d="M336.759,213.333c-10.274-0.034-20.13,4.053-27.366,11.341l-10.726,10.726l-10.726-10.726
	c-15.104-15.121-39.612-15.13-54.724-0.026c-7.27,7.262-11.349,17.118-11.349,27.392v8.533c-0.034,10.274,4.053,20.13,11.341,27.366
	l65.459,65.459l65.459-65.459c7.287-7.236,11.375-17.092,11.341-27.366v-8.533C375.441,230.673,358.127,213.359,336.759,213.333z"/>
<path d="M469.333,93.867h-47.667L355.9,28.1c-1.596-1.604-3.772-2.5-6.033-2.5h-102.4c-2.261,0-4.437,0.896-6.033,2.5
	l-65.766,65.766h-13.534v-25.6c0-4.71-3.823-8.533-8.533-8.533H85.333c-4.71,0-8.533,3.823-8.533,8.533v25.6H42.667
	C19.115,93.892,0.026,112.981,0,136.533v307.2c0.026,23.552,19.115,42.641,42.667,42.667h426.667
	c23.552-0.026,42.641-19.115,42.667-42.667v-307.2C511.974,112.981,492.885,93.892,469.333,93.867z M250.999,42.667h95.334
	l51.2,51.2H199.799L250.999,42.667z M93.867,76.8h51.2v17.067h-51.2V76.8z M17.067,136.533c0-14.14,11.46-25.6,25.6-25.6h17.067
	c23.561,0,42.667,19.106,42.667,42.667s-19.106,42.667-42.667,42.667H17.067V136.533z M494.933,443.733
	c0,14.14-11.46,25.6-25.6,25.6H42.667c-14.14,0-25.6-11.46-25.6-25.6v-230.4h42.667c32.964,0.026,59.708-26.675,59.733-59.631
	c0.017-16.102-6.477-31.522-18.005-42.769h367.872c14.14,0,25.6,11.46,25.6,25.6V443.733z"/>
<path d="M298.667,162.133c-70.69,0-128,57.31-128,128s57.31,128,128,128s128-57.31,128-128
	C426.59,219.477,369.323,162.21,298.667,162.133z M298.667,401.067c-61.269,0-110.933-49.664-110.933-110.933
	S237.397,179.2,298.667,179.2S409.6,228.864,409.6,290.133C409.532,351.377,359.91,400.998,298.667,401.067z"/>
<path d="M298.667,128c-89.54,0-162.133,72.593-162.133,162.133s72.593,162.133,162.133,162.133S460.8,379.674,460.8,290.133
	C460.698,200.636,388.164,128.102,298.667,128z M298.667,435.2c-80.119,0-145.067-64.947-145.067-145.067
	s64.947-145.067,145.067-145.067s145.067,64.947,145.067,145.067C443.648,370.219,378.752,435.115,298.667,435.2z"/>
<path d="M298.667,366.933V384c51.814-0.06,93.807-42.052,93.867-93.867h-17.067C375.415,332.527,341.06,366.882,298.667,366.933z"/>
<path d="M85.333,153.6c0-14.14-11.46-25.6-25.6-25.6s-25.6,11.46-25.6,25.6c0,14.14,11.46,25.6,25.6,25.6
	S85.333,167.74,85.333,153.6z M51.2,153.6c0-4.71,3.823-8.533,8.533-8.533s8.533,3.823,8.533,8.533s-3.823,8.533-8.533,8.533
	S51.2,158.31,51.2,153.6z"/>
<path d="M59.733,230.4c-14.14,0-25.6,11.46-25.6,25.6c0,14.14,11.46,25.6,25.6,25.6s25.6-11.46,25.6-25.6
	C85.333,241.86,73.873,230.4,59.733,230.4z M59.733,264.533c-4.71,0-8.533-3.823-8.533-8.533c0-4.71,3.823-8.533,8.533-8.533
	s8.533,3.823,8.533,8.533C68.267,260.71,64.444,264.533,59.733,264.533z"/>
<rect x="418.133" y="128" width="59.733" height="17.067"/>
<rect x="435.2" y="162.133" width="42.667" height="17.067"/>
<rect x="256" y="59.733" width="85.333" height="17.067"/>
<path d="M364.126,287.94c7.287-7.236,11.375-17.092,11.341-27.366v-8.533c0.009-21.376-17.314-38.707-38.682-38.716
	c-10.274,0-20.13,4.079-27.392,11.349l-10.726,10.726l-10.726-10.726c-15.104-15.121-39.612-15.13-54.724-0.026
	c-7.27,7.262-11.349,17.118-11.349,27.392v8.533c-0.034,10.274,4.053,20.13,11.341,27.366l65.459,65.459L364.126,287.94z
	 M238.933,260.574v-8.533c0-11.955,9.694-21.641,21.641-21.641c5.734,0,11.238,2.278,15.3,6.34l22.793,22.793l22.793-22.793
	c8.448-8.448,22.153-8.448,30.601,0c4.062,4.062,6.34,9.566,6.34,15.3v8.533c0.017,5.743-2.27,11.255-6.34,15.3l-53.393,53.393
	l-53.393-53.393C241.203,271.829,238.916,266.317,238.933,260.574z"/>
<g>
</g>
<g>
</g>
<g>
</g>
<g>
</g>
<g>
</g>
<g>
</g>
<g>
</g>
<g>
</g>
<g>
</g>
<g>
</g>
<g>
</g>
<g>
</g>
<g>
</g>
<g>
</g>
<g>
</g>
</svg>
