<svg height="512" viewBox="0 0 512 512" width="512" xmlns="http://www.w3.org/2000/svg"><g id="filled_outline" data-name="filled outline"><path d="m243.429 420.571-19.429 19.429 16 40 16 8h8l8-10.373v-29.627z" fill="#a8a8a8"/><path d="m260 448-20-32 40-56-24-72 64 64z" fill="#961b20"/><path d="m153.132 344.08-56-8a8 8 0 0 0 -9.132 7.92v24h-8a24 24 0 1 0 24 24v-38.776l40 5.714v17.062h-8a24 24 0 1 0 24 24v-48a8 8 0 0 0 -6.868-7.92z" fill="#fbb540"/><path d="m473.94 240.239-25.94-6.485v-7.508l22.06 5.515a8 8 0 0 0 3.88-15.522l-32-8a8 8 0 0 0 -9.94 7.761v32h-8a24 24 0 1 0 24 24v-21.754l22.06 5.515a8 8 0 0 0 3.88-15.522z" fill="#02a437"/><path d="m277.277 120-16-24h-21.277l-8 24-2 12h47.277z" fill="#fdc9a6"/><path d="m268.38 106.65a23.985 23.985 0 0 1 -31.54-1.17l3.16-9.48h21.28z" fill="#f6bb92"/><path d="m277.277 120 18.723 8v40a95.263 95.263 0 0 1 16 52.844v19.156h-80v-20.692a57.921 57.921 0 0 0 -11.585-34.754l-12.415-16.554v-40l24-8 1.321 1.321a30.2 30.2 0 0 0 43.956-1.321z" fill="#537cd8"/><path d="m184 182.4 24-14.4v-40l-40 22.222z" fill="#5d70b3"/><path d="m168 150.222-32 17.778-16 80v24l32 8 8-16-8-16 16-56 16-9.6z" fill="#fdc9a6"/><rect fill="#fdc9a6" height="64" rx="24" transform="matrix(-1 0 0 -1 506.554 144)" width="48" x="229.277" y="40"/><path d="m277.277 56v-12.223a19.776 19.776 0 0 0 -19.777-19.777 19.777 19.777 0 0 0 -17.689 10.932l-2.534 5.068h-2.377a18.9 18.9 0 0 0 -17.93 12.921 18.9 18.9 0 0 0 4.565 19.337l7.742 7.742 24-24z" fill="#55300b"/><path d="m259.174 448 60.826-96-61.049-60.9a38 38 0 0 1 -10.951-26.692v-24.408h64v16l41.16 68.6a48 48 0 0 1 6.84 24.7v2.979a48 48 0 0 1 -9.306 28.4l-49.417 67.321z" fill="#d32b39"/><path d="m301.277 448 18.723 40h-32l-28.723-17-.277-23z" fill="#cbcbcb"/><path d="m328 155.2 48-19.2 8-64v-32l-8-16h-24v16l-8 16 8 16-8 40-16 5.333z" fill="#fdc9a6"/><path d="m328 117.333-32 10.667v40l32-12.8z" fill="#5d70b3"/><g fill="#43dcfe"><path d="m216 312a7.974 7.974 0 0 1 -5.657-2.343l-4.687-4.686a46.325 46.325 0 0 1 -13.656-32.971 8 8 0 0 1 16 0 30.423 30.423 0 0 0 8.971 21.656l4.686 4.687a8 8 0 0 1 -5.657 13.657z"/><path d="m104 176a8.005 8.005 0 0 1 -7.591-10.531l2.343-7.03a50.847 50.847 0 0 1 25.67-29.6 8 8 0 0 1 7.154 14.31 34.952 34.952 0 0 0 -17.643 20.351l-2.343 7.028a8 8 0 0 1 -7.59 5.472z"/><path d="m152.006 132a8 8 0 0 1 -3.584-15.157l8-4a8 8 0 1 1 7.156 14.31l-8 4a7.973 7.973 0 0 1 -3.572.847z"/><path d="m392 171.2a8 8 0 0 1 -2.974-15.43 10.555 10.555 0 0 0 6.106-6.475l5.275-15.827a8 8 0 0 1 15.18 5.06l-5.276 15.826a26.525 26.525 0 0 1 -15.343 16.272 7.971 7.971 0 0 1 -2.968.574z"/><path d="m360 184a8 8 0 0 1 -2.975-15.43l8-3.2a8 8 0 0 1 5.944 14.856l-8 3.2a8 8 0 0 1 -2.969.574z"/><path d="m200 248a8 8 0 0 1 -8-8v-8a8 8 0 0 1 16 0v8a8 8 0 0 1 -8 8z"/></g><path d="m153.132 344.08-56-8a8 8 0 0 0 -9.132 7.92v24h-8a24 24 0 1 0 24 24v-38.776l40 5.714v17.062h-8a24 24 0 1 0 24 24v-48a8 8 0 0 0 -6.868-7.92zm-65.132 47.92a8 8 0 1 1 -8-8h8zm56 8a8 8 0 1 1 -8-8h8z"/><path d="m473.94 240.239-25.94-6.485v-7.508l22.06 5.515a8 8 0 0 0 3.88-15.522l-32-8a8 8 0 0 0 -9.94 7.761v32h-8a24 24 0 1 0 24 24v-21.754l22.06 5.515a8 8 0 0 0 3.88-15.522zm-41.94 31.761a8 8 0 1 1 -8-8h8z"/><path d="m392 72v-32a7.994 7.994 0 0 0 -.845-3.578l-8-16a8 8 0 0 0 -7.155-4.422h-24a8 8 0 0 0 -8 8v14.111l-7.155 14.311a8 8 0 0 0 0 7.156l6.772 13.545-6.552 32.756-40.715 13.571-13.738-5.87-7.08-10.619a31.9 31.9 0 0 0 9.745-22.961v-36.223a27.777 27.777 0 0 0 -52.622-12.422l-.386.772a26.9 26.9 0 0 0 -16.391 45.788l5.6 5.6a31.892 31.892 0 0 0 8.224 18.1l-4.023 12.068s-20.863 7-21.1 7.116c-.121.057-72.458 40.216-72.458 40.216a8 8 0 0 0 -3.96 5.424l-16 80a8.026 8.026 0 0 0 -.161 1.561v24a8 8 0 0 0 6.06 7.761l32 8a7.992 7.992 0 0 0 9.095-4.183l8-16a8 8 0 0 0 0-7.156l-6.608-13.216 14.277-49.971 31.1-18.662 8.086 10.781a50.235 50.235 0 0 1 9.99 29.954v20.692a8 8 0 0 0 8 8h8v16.408a45.671 45.671 0 0 0 8.652 26.847l22.47 67.41-37.632 52.685a7.986 7.986 0 0 0 -.541 8.386l-14.606 14.607a8 8 0 0 0 -1.771 8.628l16 40a8 8 0 0 0 3.85 4.184l16 8a7.994 7.994 0 0 0 3.578.845h8a8 8 0 0 0 5.657-2.343l4.576-4.576 9.658 5.782a7.993 7.993 0 0 0 4.109 1.137h32a8 8 0 0 0 7.245-11.392l-16.71-35.7 46.609-63.5a55.631 55.631 0 0 0 10.856-33.134v-2.974a56.02 56.02 0 0 0 -7.98-28.812l-40.02-66.704v-32.939a102.889 102.889 0 0 0 -12.31-48.9l71.281-28.512a8 8 0 0 0 4.967-6.436s8.062-64.665 8.062-64.997zm-88 61.767 16-5.334v21.351l-16 6.4zm-37.261-15.152a22.233 22.233 0 0 1 -25.515-.988l2.376-7.127a31.942 31.942 0 0 0 18 .4zm2.538-38.615a16 16 0 0 1 -31.7 3.02l19.014-19.02h12.686zm-44.716-24.55a10.879 10.879 0 0 1 10.339-7.45h2.381a8 8 0 0 0 7.156-4.423l2.533-5.066a11.777 11.777 0 0 1 22.311 5.266v4.223h-16a8 8 0 0 0 -5.657 2.343l-18.347 18.344-2.086-2.087a10.836 10.836 0 0 1 -2.63-11.15zm-24.561 86.15v21.874l-12.691 7.615-8.743-17.589zm-39.692 48.2-16 56a8 8 0 0 0 .537 5.776l6.211 12.424-3.341 6.683-19.715-4.929v-16.962l15.119-75.6 21.446-11.914 8.981 18.061-9.662 5.8a8 8 0 0 0 -3.576 4.661zm66.507-10.048-10.815-14.419v-31.567l13.972-4.658a38.24 38.24 0 0 0 49.031.329l9 3.844v34.719a8.005 8.005 0 0 0 1.344 4.438 86.994 86.994 0 0 1 14.653 48.407v11.155h-64v-12.692a66.34 66.34 0 0 0 -13.185-39.554zm59.695 184.9a8.007 8.007 0 0 0 1.08-7.18l-13.235-39.7 35.49 35.4-47.772 76.657-11.957-14.229zm-28.621 115.348-11.591-5.8-12.911-32.278 9.756-9.755 10.05 11.956a7.963 7.963 0 0 0 6.486 11.839l-5.7 12.769a8 8 0 0 0 3.194 10.127l1.9 1.137zm32.323 0-18.735-11.218 5.711-12.782h19l11.235 24zm56.088-151.284a40.016 40.016 0 0 1 5.7 20.584v2.979a39.735 39.735 0 0 1 -7.755 23.669l-47.019 64.052h-22.64l52.2-83.769a8 8 0 0 0 -1.139-9.895l-61-60.857a29.819 29.819 0 0 1 -8.647-21.071v-16.408h48v8a8.009 8.009 0 0 0 1.14 4.116zm29.7-257.216-7.353 58.823-32.647 13.061v-20.284l10.529-3.51a8 8 0 0 0 5.316-6.021l8-40a8 8 0 0 0 -.69-5.147l-6.211-12.422 6.211-12.422a7.994 7.994 0 0 0 .845-3.578v-8h11.056l4.944 9.889z"/><path d="m221.657 298.343-4.686-4.687a30.423 30.423 0 0 1 -8.971-21.656 8 8 0 0 0 -16 0 46.325 46.325 0 0 0 13.656 32.971l4.687 4.686a8 8 0 1 0 11.314-11.314z"/><path d="m101.471 175.59a7.994 7.994 0 0 0 10.119-5.061l2.343-7.028a34.952 34.952 0 0 1 17.644-20.346 8 8 0 0 0 -7.154-14.31 50.847 50.847 0 0 0 -25.67 29.6l-2.343 7.03a8 8 0 0 0 5.061 10.115z"/><path d="m152.006 132a7.973 7.973 0 0 0 3.572-.847l8-4a8 8 0 1 0 -7.156-14.31l-8 4a8 8 0 0 0 3.584 15.157z"/><path d="m410.314 154.356 5.276-15.826a8 8 0 0 0 -15.18-5.06l-5.275 15.83a10.555 10.555 0 0 1 -6.106 6.475 8 8 0 1 0 5.942 14.856 26.525 26.525 0 0 0 15.343-16.275z"/><path d="m365.028 165.372-8 3.2a8 8 0 1 0 5.944 14.856l8-3.2a8 8 0 0 0 -5.944-14.856z"/><path d="m200 248a8 8 0 0 0 8-8v-8a8 8 0 0 0 -16 0v8a8 8 0 0 0 8 8z"/></g></svg>