<?xml version="1.0" encoding="iso-8859-1"?>
<!-- Generator: Adobe Illustrator 19.0.0, SVG Export Plug-In . SVG Version: 6.00 Build 0)  -->
<svg version="1.1" id="Layer_1" xmlns="http://www.w3.org/2000/svg" xmlns:xlink="http://www.w3.org/1999/xlink" x="0px" y="0px"
	 viewBox="0 0 393.309 393.309" style="enable-background:new 0 0 393.309 393.309;" xml:space="preserve">
<path style="fill:#E2E2E2;" d="M393.309,196.655C393.309,87.984,305.325,0,196.655,0S0,87.984,0,196.655
	c0,36.267,9.826,70.141,26.893,99.297h339.459C383.483,266.796,393.309,232.921,393.309,196.655z"/>
<path style="fill:#646B79;" d="M26.893,295.952c34.133,58.246,97.358,97.358,169.762,97.358s135.628-39.111,169.762-97.358H26.893z"
	/>
<g>
	<polygon style="fill:#EF832B;" points="228.655,107.119 232.275,125.285 237.964,107.572 	"/>
	<polygon style="fill:#EF832B;" points="226.844,167.434 231.758,149.139 218.57,162.78 	"/>
</g>
<path style="fill:#F8B84C;" d="M229.56,90.182h-27.281c-8.986-7.434-20.687-11.636-33.358-10.925
	c-23.467,1.552-42.602,20.493-44.154,43.96c-1.875,27.669,20.04,50.747,47.321,50.747c10.343,0,19.911-3.297,27.733-8.986
	c25.083,28.38,35.749-1.228,35.749-1.228l-33.616-15.386c-7.628-3.556-12.218-11.572-11.119-20.04
	c1.228-9.632,9.438-16.937,19.135-16.937h26.182c3.426,0,5.947-1.487,7.887-3.62C232.339,99.426,229.754,93.543,229.56,90.182z"/>
<g>
	<circle style="fill:#985308;" cx="171.636" cy="107.119" r="4.59"/>
	<path style="fill:#985308;" d="M229.56,90.182c0.129,3.426,2.78,9.244,14.545,17.713c5.301-6.077,5.689-17.713,5.689-17.713
		S229.56,90.182,229.56,90.182z"/>
</g>
<path style="fill:#E78433;" d="M123.475,203.442v92.444h-9.826c-1.681-19.329-19.717-19.329-19.717-19.329
	c0-42.214-17.261-46.739-36.655-46.739c-9.697,0-16.226,5.366-20.364,10.667c-4.008,5.172-5.689,10.343-5.754,10.667
	c10.02-45.899,44.154-62.836,67.943-69.042C102.982,192.84,112.162,201.051,123.475,203.442z"/>
<path style="fill:#F8B84C;" d="M93.931,276.622c0-42.279-17.325-46.739-36.655-46.739c-19.394,0-26.117,21.333-26.117,21.333l0,0
	c-2.78,16.291-2.392,28.962-2.392,28.962v15.774h84.816C111.968,276.622,93.931,276.622,93.931,276.622z"/>
<path style="fill:#E78433;" d="M174.416,295.952c0,0,1.034-17.325-18.295-17.325v-57.794c5.754,0,11.119-1.616,15.774-4.331v58.57
	c0,0,20.881,0.517,20.881,20.881H174.416z"/>
<path style="fill:#F8B84C;" d="M174.352,295.887h-50.877v-92.444c1.552,0.323,3.168,0.582,4.784,0.646
	c5.236,9.956,15.644,16.679,27.669,16.679h0.065v57.729C175.321,278.562,174.352,295.887,174.352,295.887z"/>
<path style="fill:#985308;" d="M204.994,174.352c0-1.487-0.129-2.974-0.388-4.396c-1.552-1.358-3.103-2.974-4.784-4.848
	c-5.107,3.685-11.055,6.4-17.39,7.822c-4.59-7.305-12.154-12.606-21.01-14.158c-3.943-9.956-12.541-17.519-23.079-20.04
	c0-0.323,0-0.646,0-0.905c0-5.43-1.422-10.537-3.879-14.998c0.905-2.586,1.358-5.366,1.358-8.21c0-2.004-0.259-4.008-0.711-5.883
	c9.568-3.232,17.002-11.055,19.588-20.881c1.681-0.582,3.297-1.358,4.784-2.327c3.556,3.685,8.533,5.947,14.093,5.947
	c10.796,0,19.523-8.727,19.523-19.523s-8.727-19.523-19.523-19.523c-2.651,0-5.172,0.517-7.434,1.487
	c-4.073-6.077-10.99-10.02-18.812-10.02c-6.206,0-11.83,2.521-15.903,6.529c-1.939-0.388-3.943-0.582-5.947-0.582
	c-16.485,0-29.867,13.123-30.255,29.543c-10.02,0-18.101,8.145-18.101,18.166c0,6.141,3.038,11.572,7.693,14.804
	c-0.065,0.776-0.129,1.616-0.129,2.392c0,0.905,0.065,1.875,0.129,2.78c-4.848,5.43-7.822,12.606-7.822,20.428
	c0,13.382,8.598,24.824,20.622,28.962c-0.194,1.422-0.259,2.78-0.259,4.267c0,17.584,13.64,32,30.966,33.164
	c5.236,9.956,15.644,16.679,27.669,16.679c14.287,0,26.376-9.632,30.125-22.691C196.913,195.62,204.994,185.923,204.994,174.352z"/>
<path style="fill:#F8B84C;" d="M134.4,79.257c-5.56-5.43-14.481-5.301-19.846,0.259c-5.43,5.56-5.301,14.481,0.259,19.846
	c1.616,1.552,3.491,2.651,5.495,3.297l17.519-18.036C137.051,82.747,135.887,80.873,134.4,79.257z"/>
<g>
	<rect x="285.35" y="286.384" style="fill:#333842;" width="19.911" height="9.568"/>
	<path style="fill:#333842;" d="M319.289,213.269v73.115h-13.964v-70.077l0.065-0.065l8.016-5.366
		C313.729,211.071,315.927,211.976,319.289,213.269z"/>
</g>
<path style="fill:#414753;" d="M352.517,221.673v74.214h-0.065v0.065h-47.127v-9.568h13.964v-73.115
	C326.659,215.984,339.846,220.315,352.517,221.673z"/>
<path style="fill:#985308;" d="M72.016,247.79c-9.18-16.679-24.048-24.76-35.943-31.289c-16.743-9.115-24.566-14.287-18.618-30.836
	c7.758,0.065,13.77-12.154,8.339-17.261c-5.43-5.107,3.038-13.188,3.038-13.188c-27.022,1.939-18.489,27.992-18.489,27.992h0.065
	c-8.21,23.273,6.529,31.289,22.109,39.887c11.572,6.4,24.824,13.576,32.97,28.38c3.943,7.176,4.719,12.994,2.069,17.261
	c-6.271,10.214-29.996,11.572-38.529,11.313l-0.323,7.434c0.453,0.065,1.422,0.065,2.715,0.065c8.792,0,34.069-1.228,42.473-14.933
	C78.028,265.826,77.446,257.552,72.016,247.79z"/>
<path style="fill:#E74938;" d="M379.087,185.665c0,0-26.44,12.606-45.188-6.529l-31.224-34.263h43.96
	c5.107,0,9.244-4.202,9.244-9.244s-4.202-9.244-9.244-9.244H282.57c-2.78,0-5.301,1.228-6.982,3.232
	c-6.465,0.129-12.929,2.521-18.036,7.24c-10.925,9.956-12.154,26.764-2.909,38.141v56.954c0,5.107,4.202,9.244,9.244,9.244
	c5.172,0,9.244-4.202,9.244-9.244v-36.59l23.596,25.859l8.663-4.978l8.016-5.366c1.939,0.84,64.388,27.604,71.887-4.913
	C385.293,206.028,386.198,195.038,379.087,185.665z"/>
<circle style="fill:#F8B84C;" cx="347.022" cy="135.305" r="9.762"/>
<path style="fill:#FCFCFD;" d="M313.341,210.877l-8.016,5.43l-43.313-51.006c2.521-0.453,4.849-1.228,7.046-2.392L313.341,210.877z"
	/>
<path style="fill:#F8B84C;" d="M263.499,143.127c1.552,6.4,7.24,6.723,7.24,6.723l-2.909,2.521c0,0-6.594-5.43-14.158-4.073
	c-7.564,1.228-5.883-10.214-5.883-10.214s-5.042,12.8-10.537,15.838c4.396,7.046,11.96,11.636,20.622,11.636
	c12.8,0,23.273-10.214,24.436-23.273c-1.099-0.129-2.263-0.646-3.62-1.422C269.188,135.564,261.883,136.663,263.499,143.127z"/>
<path style="fill:#4F5565;" d="M257.875,114.36c-13.576,0-24.566,11.442-24.566,25.665c0,5.107,1.487,9.891,3.943,13.899
	c5.495-3.103,10.537-15.838,10.537-15.838s-1.681,11.442,5.883,10.214s14.158,4.073,14.158,4.073l2.909-2.521
	c0,0-5.689-0.323-7.24-6.723s5.689-7.564,15.192-2.133c1.422,0.776,2.521,1.228,3.62,1.422c0.065-0.776,0.065-1.552,0.065-2.392
	C282.44,125.802,271.451,114.36,257.875,114.36z"/>
<g>
</g>
<g>
</g>
<g>
</g>
<g>
</g>
<g>
</g>
<g>
</g>
<g>
</g>
<g>
</g>
<g>
</g>
<g>
</g>
<g>
</g>
<g>
</g>
<g>
</g>
<g>
</g>
<g>
</g>
</svg>
