<?xml version="1.0" encoding="UTF-8" standalone="no"?>
<!DOCTYPE svg PUBLIC "-//W3C//DTD SVG 1.1//EN" "http://www.w3.org/Graphics/SVG/1.1/DTD/svg11.dtd">
<svg version="1.1" xmlns="http://www.w3.org/2000/svg" xmlns:xlink="http://www.w3.org/1999/xlink" preserveAspectRatio="xMidYMid meet" viewBox="0 0 254 195" width="254" height="195"><defs><path d="M32.73 160.03L33.22 156.86C39.99 153.59 43.75 151.77 44.5 151.4C44.98 151.17 45.29 150.69 45.29 150.16C45.29 149.63 45 149.14 44.52 148.9C43.78 148.52 40.05 146.64 33.33 143.26C32.31 135.81 31.74 131.67 31.63 130.85C31.56 130.32 31.19 129.88 30.69 129.71C30.19 129.54 29.63 129.68 29.26 130.05C28.67 130.65 25.73 133.61 20.44 138.95C13.04 137.62 8.93 136.88 8.1 136.73C7.58 136.64 7.05 136.85 6.73 137.28C6.42 137.71 6.37 138.28 6.62 138.75C7 139.49 8.91 143.2 12.36 149.89C8.8 156.51 6.83 160.19 6.43 160.93C6.18 161.4 6.22 161.97 6.53 162.4C6.84 162.83 7.36 163.05 7.89 162.97C8.71 162.83 12.84 162.16 20.26 160.95C25.46 166.38 28.35 169.39 28.93 170C29.09 170.16 29.28 170.28 29.49 170.35C29.77 170.45 30.07 170.45 30.36 170.36C30.86 170.2 31.24 169.77 31.32 169.24C31.37 168.9 31.63 167.18 32.11 164.09" id="kuNE6LY37"></path><path d="M15.76 151.02C15.76 151.02 15.76 151.02 15.76 151.02C16.26 150.09 15.84 149.13 15.84 149.13C15.84 149.13 15.84 149.13 15.84 149.13C12.67 142.98 10.91 139.56 10.56 138.88C10.31 138.4 10.36 137.83 10.68 137.41C10.72 137.34 10.78 137.28 10.84 137.23C10.56 137.18 8.38 136.78 8.1 136.73C7.58 136.64 7.05 136.85 6.73 137.28C6.42 137.71 6.37 138.28 6.62 138.75C7 139.49 8.91 143.2 12.36 149.89C8.8 156.51 6.83 160.19 6.43 160.93C6.18 161.4 6.22 161.97 6.53 162.4C6.84 162.83 7.36 163.05 7.89 162.97C8.15 162.93 10.22 162.59 10.48 162.55C10.48 162.54 10.47 162.53 10.47 162.53C10.16 162.1 10.12 161.53 10.38 161.06C11.45 159.05 15.22 152.02 15.76 151.02Z" id="h2IsBqf4P"></path><path d="M73.36 172.52C72.89 172.45 70.53 172.1 66.28 171.49C64.38 167.64 63.32 165.5 63.11 165.07C62.98 164.8 62.7 164.62 62.4 164.62C62.09 164.62 61.82 164.8 61.68 165.07C61.47 165.5 60.41 167.64 58.51 171.49C54.26 172.1 51.9 172.45 51.43 172.52C51.13 172.56 50.88 172.77 50.79 173.06C50.69 173.35 50.77 173.66 50.99 173.88C51.33 174.21 53.04 175.87 56.11 178.87C55.39 183.11 54.98 185.46 54.9 185.93C54.85 186.23 54.97 186.53 55.22 186.71C55.47 186.89 55.79 186.91 56.06 186.77C56.48 186.55 58.59 185.44 62.4 183.44C66.2 185.44 68.31 186.55 68.73 186.77C68.85 186.83 68.98 186.86 69.1 186.86C69.27 186.86 69.43 186.81 69.57 186.71C69.82 186.53 69.94 186.23 69.89 185.93C69.81 185.46 69.41 183.11 68.68 178.87C71.75 175.87 73.46 174.21 73.81 173.88C74.02 173.66 74.1 173.35 74.01 173.06C73.91 172.77 73.66 172.56 73.36 172.52Z" id="i3OnF3Z6u4"></path><path d="M77.59 122.59L76.7 121.32C77.98 117.91 78.69 116.02 78.83 115.64C78.92 115.4 78.87 115.13 78.69 114.94C78.52 114.75 78.25 114.68 78 114.75C77.62 114.87 75.68 115.46 72.2 116.51C69.35 114.24 67.77 112.98 67.46 112.73C67.26 112.57 66.98 112.54 66.75 112.65C66.52 112.76 66.36 112.99 66.36 113.25C66.35 113.65 66.31 115.67 66.24 119.31C63.2 121.32 61.51 122.43 61.18 122.65C60.96 122.79 60.84 123.04 60.88 123.3C60.91 123.56 61.08 123.77 61.33 123.85C61.71 123.99 63.62 124.65 67.06 125.84C68.03 129.35 68.56 131.3 68.67 131.69C68.74 131.94 68.94 132.13 69.19 132.18C69.45 132.22 69.71 132.13 69.86 131.92C70.1 131.6 71.33 129.99 73.52 127.08C77.16 127.25 79.18 127.34 79.58 127.36C79.69 127.36 79.8 127.34 79.9 127.29C80.03 127.23 80.14 127.14 80.21 127.01C80.33 126.78 80.32 126.51 80.17 126.3C80.07 126.16 79.59 125.47 78.73 124.23" id="bo8FuKbHA"></path><path d="M68.63 125.1C68.63 125.1 68.63 125.1 68.63 125.1C68.49 124.61 68.03 124.41 68.03 124.41C68.03 124.41 68.03 124.41 68.03 124.41C64.86 123.32 63.1 122.7 62.75 122.58C62.51 122.5 62.33 122.28 62.3 122.03C62.3 121.99 62.3 121.95 62.3 121.91C62.19 121.99 61.29 122.58 61.18 122.65C60.96 122.79 60.84 123.04 60.88 123.3C60.91 123.56 61.08 123.77 61.33 123.85C61.71 123.99 63.62 124.65 67.06 125.84C68.02 129.35 68.56 131.3 68.67 131.69C68.74 131.94 68.94 132.13 69.19 132.18C69.45 132.22 69.71 132.13 69.86 131.92C69.94 131.82 70.55 131.01 70.63 130.91C70.63 130.9 70.62 130.9 70.62 130.9C70.37 130.86 70.16 130.67 70.09 130.42C69.8 129.36 68.78 125.63 68.63 125.1Z" id="f2soEAIOIr"></path><path d="M69.08 132.78C68.59 132.69 68.21 132.33 68.08 131.86C67.98 131.49 67.47 129.64 66.55 126.32C63.3 125.19 61.49 124.56 61.12 124.44C60.66 124.27 60.33 123.87 60.27 123.38C60.21 122.89 60.42 122.41 60.84 122.14C61.16 121.93 62.75 120.87 65.63 118.98C65.7 115.53 65.74 113.62 65.74 113.23C65.75 112.74 66.04 112.3 66.49 112.09C66.93 111.88 67.45 111.94 67.84 112.25C68.14 112.49 69.64 113.68 72.33 115.83C75.63 114.83 77.46 114.28 77.83 114.17C78.3 114.02 78.8 114.16 79.14 114.52C79.48 114.88 79.58 115.39 79.41 115.86C79.27 116.21 78.6 118.01 77.39 121.23C77.81 121.84 78.05 122.17 78.09 122.24C78.29 122.52 78.22 122.9 77.94 123.1C77.66 123.29 77.28 123.22 77.08 122.95C77 122.82 76.28 121.8 76.2 121.67C76.08 121.5 76.05 121.29 76.12 121.1C76.34 120.53 78.04 115.99 78.26 115.42C78.27 115.4 78.26 115.38 78.25 115.36C78.23 115.34 78.21 115.34 78.18 115.34C77.6 115.52 72.96 116.93 72.38 117.1C72.18 117.16 71.97 117.12 71.82 117C71.34 116.62 67.55 113.59 67.07 113.21C67.04 113.18 66.97 113.21 66.97 113.26C66.96 113.86 66.87 118.72 66.85 119.32C66.85 119.53 66.75 119.71 66.58 119.82C66.07 120.16 62.02 122.83 61.51 123.16C61.49 123.18 61.48 123.2 61.49 123.22C61.49 123.25 61.51 123.27 61.53 123.27C62.1 123.47 66.69 125.06 67.26 125.26C67.45 125.33 67.6 125.48 67.65 125.68C67.81 126.26 69.1 130.94 69.26 131.53C69.27 131.55 69.29 131.57 69.31 131.57C69.33 131.58 69.36 131.57 69.37 131.55C69.74 131.07 72.67 127.2 73.03 126.71C73.15 126.55 73.35 126.46 73.55 126.47C74.16 126.5 79 126.72 79.61 126.74C79.63 126.74 79.65 126.74 79.67 126.71C79.68 126.69 79.68 126.67 79.66 126.65C79.52 126.44 78.37 124.78 78.22 124.58C78.03 124.3 78.1 123.92 78.38 123.72C78.65 123.53 79.04 123.6 79.23 123.88C79.37 124.08 80.53 125.74 80.67 125.94C80.96 126.35 80.98 126.87 80.74 127.31C80.61 127.55 80.41 127.73 80.16 127.85C79.97 127.94 79.76 127.98 79.55 127.97C79.17 127.95 77.26 127.87 73.82 127.71C71.74 130.46 70.58 131.99 70.35 132.29C70.22 132.46 70.06 132.6 69.87 132.68C69.63 132.8 69.35 132.83 69.08 132.78Z" id="c417Kgmw7"></path><path d="M62.7 163.01L62.85 163.03L63 163.06L63.14 163.1L63.29 163.15L63.42 163.21L63.55 163.28L63.68 163.35L63.81 163.43L63.92 163.52L64.04 163.62L64.14 163.72L64.24 163.83L64.34 163.95L64.43 164.08L64.51 164.21L64.58 164.34L67.37 169.99L73.6 170.9L73.75 170.92L73.9 170.96L74.04 171L74.19 171.06L74.32 171.12L74.45 171.19L74.58 171.26L74.7 171.35L74.82 171.44L74.93 171.54L75.03 171.65L75.13 171.76L75.22 171.88L75.31 172L75.38 172.13L75.45 172.27L75.51 172.41L75.56 172.55L75.61 172.7L75.64 172.85L75.66 173L75.68 173.15L75.68 173.3L75.68 173.45L75.67 173.6L75.64 173.74L75.61 173.89L75.57 174.03L75.53 174.17L75.47 174.31L75.4 174.44L75.33 174.57L75.24 174.7L75.15 174.82L75.05 174.94L74.95 175.05L70.44 179.44L71.5 185.65L71.52 185.8L71.54 185.96L71.54 186.11L71.53 186.26L71.51 186.41L71.49 186.55L71.45 186.7L71.41 186.84L71.36 186.98L71.3 187.12L71.23 187.25L71.16 187.37L71.07 187.5L70.98 187.62L70.88 187.73L70.77 187.84L70.66 187.94L70.53 188.03L70.46 188.08L70.39 188.13L70.32 188.17L70.24 188.21L70.17 188.25L70.09 188.29L70.01 188.32L69.93 188.35L69.85 188.38L69.77 188.4L69.69 188.42L69.61 188.44L69.53 188.46L69.44 188.47L69.36 188.48L69.27 188.49L69.19 188.49L69.1 188.5L69.04 188.5L68.97 188.49L68.91 188.49L68.84 188.48L68.78 188.47L68.71 188.46L68.65 188.45L68.58 188.44L68.52 188.43L68.46 188.41L68.39 188.39L68.33 188.37L68.27 188.35L68.21 188.33L68.15 188.3L68.09 188.28L68.03 188.25L67.97 188.22L62.4 185.29L56.82 188.22L56.76 188.25L56.7 188.27L56.64 188.3L56.58 188.33L56.52 188.35L56.46 188.37L56.4 188.39L56.34 188.41L56.27 188.43L56.21 188.44L56.15 188.45L56.08 188.46L56.02 188.47L55.95 188.48L55.89 188.49L55.82 188.49L55.76 188.5L55.69 188.5L55.6 188.5L55.52 188.49L55.43 188.48L55.35 188.47L55.26 188.46L55.18 188.44L55.1 188.42L55.02 188.4L54.94 188.38L54.86 188.35L54.78 188.32L54.7 188.29L54.62 188.25L54.55 188.21L54.47 188.17L54.4 188.13L54.33 188.08L54.26 188.03L54.14 187.94L54.02 187.84L53.91 187.73L53.81 187.62L53.72 187.5L53.64 187.37L53.56 187.25L53.49 187.12L53.43 186.98L53.38 186.84L53.34 186.7L53.3 186.55L53.28 186.41L53.26 186.26L53.25 186.11L53.26 185.96L53.27 185.8L53.29 185.65L54.35 179.44L49.85 175.05L49.74 174.94L49.64 174.82L49.55 174.7L49.46 174.57L49.39 174.44L49.32 174.31L49.27 174.17L49.22 174.03L49.18 173.89L49.15 173.74L49.13 173.6L49.11 173.45L49.11 173.3L49.11 173.15L49.13 173L49.15 172.85L49.19 172.7L49.23 172.55L49.28 172.41L49.34 172.27L49.41 172.13L49.49 172L49.57 171.88L49.66 171.76L49.76 171.65L49.86 171.54L49.97 171.44L50.09 171.35L50.21 171.26L50.34 171.19L50.47 171.12L50.61 171.06L50.75 171L50.89 170.96L51.04 170.92L51.19 170.9L57.43 169.99L60.21 164.34L60.29 164.21L60.37 164.08L60.45 163.95L60.55 163.83L60.65 163.72L60.75 163.62L60.87 163.52L60.99 163.43L61.11 163.35L61.24 163.28L61.37 163.21L61.51 163.15L61.65 163.1L61.79 163.06L61.94 163.03L62.09 163.01L62.24 162.99L62.4 162.99L62.55 162.99L62.7 163.01ZM59.92 172.33L59.84 172.44L59.76 172.54L59.67 172.64L59.58 172.73L59.47 172.81L59.37 172.88L59.25 172.95L59.13 173L59.01 173.05L58.88 173.08L58.75 173.11L53.35 173.89L57.26 177.7L57.35 177.8L57.43 177.9L57.5 178.01L57.57 178.12L57.62 178.24L57.67 178.37L57.71 178.49L57.73 178.62L57.75 178.75L57.75 178.88L57.74 179.02L57.73 179.15L56.8 184.53L61.63 181.99L61.69 181.96L61.76 181.93L61.82 181.91L61.88 181.88L61.94 181.86L62.01 181.85L62.07 181.83L62.14 181.82L62.2 181.81L62.27 181.81L62.33 181.8L62.4 181.8L62.46 181.8L62.53 181.81L62.59 181.81L62.66 181.82L62.72 181.83L62.79 181.85L62.85 181.86L62.91 181.88L62.97 181.91L63.04 181.93L63.1 181.96L63.16 181.99L67.99 184.53L67.07 179.15L67.05 179.02L67.04 178.88L67.05 178.75L67.06 178.62L67.09 178.49L67.12 178.37L67.17 178.24L67.22 178.13L67.29 178.01L67.36 177.9L67.44 177.8L67.54 177.7L71.44 173.89L66.04 173.11L65.91 173.08L65.78 173.05L65.66 173L65.54 172.95L65.43 172.88L65.32 172.81L65.21 172.73L65.12 172.64L65.03 172.54L64.95 172.44L64.88 172.33L64.81 172.21L62.4 167.32L59.98 172.21L59.92 172.33Z" id="b2MuTZbbwA"></path><path d="M61.13 177.56C58.06 174.57 56.35 172.9 56.01 172.57C55.82 172.39 55.74 172.13 55.78 171.88C55.34 171.95 51.86 172.45 51.43 172.52C51.13 172.56 50.88 172.77 50.79 173.06C50.69 173.35 50.77 173.66 50.99 173.88C51.33 174.21 53.04 175.87 56.11 178.87C55.39 183.11 54.98 185.46 54.9 185.93C54.85 186.23 54.97 186.53 55.22 186.71C55.47 186.89 55.79 186.91 56.06 186.77C56.45 186.57 59.53 184.95 59.91 184.74C59.91 184.7 59.92 184.66 59.92 184.62C60.08 183.68 60.49 181.33 61.13 177.56Z" id="hSrMkbeVm"></path><path d="M5.49 163.14C4.9 162.31 4.83 161.23 5.31 160.33C5.69 159.63 7.56 156.15 10.92 149.88C7.66 143.55 5.85 140.03 5.49 139.33C5.02 138.42 5.11 137.35 5.71 136.52C6.32 135.7 7.32 135.3 8.33 135.49C9.11 135.63 13 136.33 20 137.59C25.01 132.53 27.8 129.72 28.35 129.16C29.07 128.43 30.12 128.18 31.09 128.51C32.06 128.83 32.75 129.66 32.89 130.68C33 131.46 33.53 135.38 34.5 142.43C40.86 145.63 44.39 147.41 45.09 147.77C46.01 148.23 46.57 149.15 46.56 150.17C46.55 151.19 45.97 152.1 45.05 152.55C44.34 152.89 40.78 154.61 34.37 157.71C34.14 159.22 34.01 160.06 33.99 160.22C33.88 160.92 33.23 161.39 32.54 161.29C31.84 161.18 31.37 160.53 31.48 159.84C31.53 159.52 31.92 156.98 31.97 156.66C32.03 156.25 32.29 155.9 32.67 155.71C33.8 155.17 42.82 150.81 43.95 150.26C43.99 150.24 44.02 150.2 44.02 150.15C44.02 150.1 43.99 150.05 43.95 150.03C42.83 149.47 33.88 144.96 32.76 144.4C32.39 144.21 32.13 143.85 32.07 143.43C31.9 142.19 30.54 132.26 30.37 131.02C30.36 130.92 30.23 130.88 30.16 130.95C29.28 131.84 22.22 138.96 21.34 139.85C21.04 140.14 20.62 140.28 20.21 140.2C18.98 139.98 9.11 138.21 7.88 137.98C7.83 137.98 7.78 137.99 7.75 138.03C7.73 138.07 7.72 138.12 7.74 138.17C8.32 139.28 12.91 148.19 13.48 149.31C13.67 149.68 13.67 150.12 13.47 150.49C12.88 151.59 8.14 160.43 7.55 161.53C7.53 161.57 7.53 161.62 7.56 161.66C7.59 161.7 7.64 161.72 7.68 161.72C8.92 161.51 18.81 159.9 20.05 159.7C20.46 159.63 20.88 159.77 21.17 160.07C22.04 160.98 28.98 168.21 29.84 169.12C29.87 169.15 29.9 169.17 29.97 169.15C30.02 169.14 30.05 169.1 30.06 169.05C30.14 168.53 30.77 164.42 30.85 163.9C30.96 163.21 31.61 162.73 32.3 162.84C32.99 162.95 33.47 163.59 33.36 164.29C33.28 164.8 32.65 168.92 32.57 169.43C32.42 170.44 31.71 171.26 30.74 171.57C30.2 171.74 29.63 171.74 29.09 171.56C28.68 171.42 28.31 171.18 28.01 170.87C27.46 170.3 24.73 167.45 19.8 162.31C12.78 163.46 8.87 164.09 8.09 164.22C7.65 164.29 7.22 164.25 6.82 164.12C6.29 163.95 5.83 163.61 5.49 163.14Z" id="l2sNl8O9zO"></path><path d="M93.81 167.39C83.76 167.39 75.62 159.25 75.62 149.2C75.62 141.61 75.62 80.92 75.62 73.34C75.62 63.1 80.68 53.53 89.15 47.78C94.52 44.14 137.48 14.95 142.86 11.3C150.01 6.44 159.4 6.44 166.56 11.3C171.93 14.95 214.92 44.14 220.29 47.78C228.76 53.53 233.83 63.11 233.83 73.34C233.83 80.93 233.83 141.61 233.83 149.2C233.83 159.25 225.69 167.39 215.64 167.39C191.27 167.39 105.99 167.39 93.81 167.39Z" id="a6yO2ZSyt6"></path><path d="M95.63 141.78C95.63 86.65 95.63 56.02 95.63 49.89C95.63 40.27 103.42 32.48 113.04 32.48C121.38 32.48 188.07 32.48 196.41 32.48C206.03 32.48 213.82 40.27 213.82 49.89C213.82 56.02 213.82 86.65 213.82 141.78L213.82 141.78L95.63 141.78Z" id="av5Gojwnw"></path><path d="M213.82 56.98C213.82 56.98 182.52 82.81 154.28 82.81C126.04 82.81 95.62 56.88 95.62 56.98C95.62 62.63 95.62 90.9 95.62 141.78L213.82 141.78C213.82 90.9 213.82 62.63 213.82 56.98Z" id="b2vyxWrOhI"></path><path d="M171.82 72.08C172.42 71.91 172.75 71.82 172.82 71.8C174.1 71.44 174.84 70.11 174.48 68.83C174.12 67.55 172.79 66.8 171.51 67.16C171.14 67.26 169.3 67.78 165.98 68.71L158.95 64.65L164.58 61.4C168.99 62.23 171.43 62.69 171.92 62.78C173.34 63.03 174.52 62.02 174.74 60.86C174.98 59.55 174.12 58.29 172.82 58.05C172.69 58.02 172.09 57.91 170.99 57.7C172.71 56.71 173.67 56.16 173.86 56.05C175.01 55.38 175.41 53.91 174.74 52.75C174.08 51.6 172.6 51.21 171.45 51.87C171.29 51.97 170.47 52.43 169.01 53.28C169.21 52.65 169.32 52.29 169.35 52.22C169.75 50.95 169.05 49.6 167.79 49.19C166.52 48.79 165.16 49.48 164.75 50.75C164.62 51.16 163.97 53.2 162.8 56.86L156.54 60.48L156.54 53.98C159.3 50.86 160.83 49.13 161.13 48.79C162.02 47.79 161.92 46.27 160.92 45.38C159.93 44.5 158.4 44.6 157.52 45.59C157.46 45.67 157.13 46.04 156.54 46.7C156.54 45.46 156.54 44.77 156.54 44.64C156.54 43.3 155.46 42.22 154.13 42.22C152.8 42.22 151.72 43.3 151.72 44.64C151.72 44.77 151.72 45.46 151.72 46.7C151.13 46.04 150.81 45.67 150.74 45.59C149.86 44.6 148.34 44.5 147.34 45.38C146.34 46.27 146.25 47.79 147.13 48.79C147.44 49.13 148.97 50.86 151.72 53.98L151.72 60.48L145.54 56.91C144.38 53.17 143.73 51.09 143.6 50.67C143.2 49.4 141.85 48.69 140.58 49.08C139.31 49.48 138.6 50.83 139 52.1C139.02 52.19 139.15 52.6 139.39 53.36C138.56 52.88 138.09 52.61 138 52.56C136.85 51.89 135.37 52.29 134.71 53.44C134.04 54.59 134.44 56.07 135.59 56.73C135.69 56.79 136.2 57.08 137.11 57.61C136.13 57.78 135.59 57.88 135.48 57.9C134.17 58.14 133.3 59.39 133.54 60.7C133.75 61.87 134.57 62.86 136.34 62.64C136.82 62.56 139.23 62.12 143.57 61.34L149.31 64.65L142.37 68.66C138.98 67.68 137.09 67.13 136.72 67.02C135.44 66.65 134.1 67.39 133.73 68.67C133.36 69.94 134.1 71.28 135.38 71.65C135.46 71.67 135.86 71.79 136.58 72C135.99 72.34 135.66 72.54 135.59 72.57C134.44 73.24 134.04 74.71 134.71 75.87C135.15 76.64 136.44 77.56 138 76.75C138.06 76.71 138.38 76.53 138.95 76.2C138.54 77.15 138.32 77.67 138.27 77.78C137.75 79 138.31 80.42 139.54 80.95C139.85 81.08 141.84 81.62 142.7 79.68C142.92 79.18 143.99 76.68 145.92 72.17L151.72 68.83L151.72 76.69C148.96 79.81 147.43 81.54 147.13 81.89C146.25 82.89 146.34 84.41 147.34 85.29C148.34 86.17 149.86 86.08 150.74 85.08C150.81 85.01 151.13 84.64 151.72 83.97C151.72 85.21 151.72 85.9 151.72 86.04C151.72 87.37 152.8 88.45 154.13 88.45C155.46 88.45 156.54 87.37 156.54 86.04C156.54 85.9 156.54 85.21 156.54 83.97C157.13 84.64 157.45 85.01 157.52 85.08C158 85.62 158.66 85.9 159.33 85.9C159.89 85.9 160.46 85.7 160.92 85.29C161.92 84.41 162.01 82.89 161.13 81.89C160.83 81.54 159.3 79.81 156.54 76.69L156.54 68.83L162.2 72.1C164.13 76.7 165.2 79.26 165.42 79.77C166.4 81.7 168.27 81.19 168.57 81.06C169.8 80.55 170.38 79.13 169.87 77.91C169.81 77.78 169.56 77.17 169.1 76.08C170.51 76.89 171.29 77.34 171.45 77.43C172.93 78.21 174.29 77.32 174.74 76.55C175.41 75.4 175.01 73.93 173.86 73.26C173.59 73.1 172.91 72.71 171.82 72.08Z" id="a3PsqtZxl7"></path><path d="M75.62 73.34C75.62 80.92 75.62 141.61 75.62 149.2C75.62 159.25 83.76 167.39 93.81 167.39C105.99 167.39 203.46 167.39 215.64 167.39C225.69 167.39 233.83 159.25 233.83 149.2C233.83 141.61 233.83 80.93 233.83 73.34C233.83 67.47 232.16 61.82 229.14 56.98C224.18 60.98 199.37 80.99 154.72 117L80.31 56.98C77.18 63.97 75.62 69.42 75.62 73.34Z" id="b2ORrhb8s"></path><path d="M154.72 117L127.68 95.19L75.62 143C75.62 146.72 75.62 148.79 75.62 149.2C75.62 159.25 83.76 167.39 93.81 167.39C105.99 167.39 203.46 167.39 215.64 167.39C225.69 167.39 233.83 159.25 233.83 149.2C233.83 148.79 233.83 146.72 233.83 143L181.77 95.19L154.72 117Z" id="bcj4px5qR"></path><path d="M79.89 160.89C83.23 164.86 88.23 167.39 93.83 167.39C106.01 167.39 203.47 167.39 215.66 167.39C221.22 167.39 226.2 164.89 229.54 160.95C229.54 160.95 229.55 160.93 229.56 160.89C190.45 124.98 168.73 105.04 164.38 101.05C158.92 96.03 150.53 96.03 145.06 101.05C140.72 105.04 118.99 124.98 79.89 160.89C79.89 160.89 79.89 160.89 79.89 160.89Z" id="a8HYNb0HSH"></path><path d="M168.72 121.39C167.74 120.49 167.67 118.97 168.57 117.98C169.48 117 171 116.94 171.98 117.84C174.39 120.06 193.71 137.79 196.12 140.01C197.1 140.91 197.17 142.43 196.27 143.41C195.79 143.93 194.32 144.75 192.86 143.56C188.03 139.12 171.13 123.61 168.72 121.39Z" id="a8DngKsvm"></path><path d="M156.09 5.27L156.77 5.32L157.46 5.4L158.15 5.49L158.83 5.6L159.51 5.73L160.19 5.89L160.86 6.06L161.53 6.25L162.19 6.47L162.86 6.7L163.51 6.96L164.16 7.23L164.8 7.53L165.44 7.85L166.07 8.18L166.69 8.54L167.31 8.92L167.91 9.32L198.69 30.21L199.18 30.28L199.67 30.35L200.15 30.44L200.63 30.54L201.1 30.65L201.57 30.77L202.04 30.9L202.5 31.04L202.96 31.2L203.41 31.36L203.86 31.53L204.3 31.72L204.73 31.92L205.16 32.12L205.59 32.34L206 32.56L206.42 32.8L206.82 33.04L207.22 33.3L207.61 33.56L208 33.83L208.38 34.11L208.75 34.4L209.12 34.7L209.47 35.01L209.83 35.32L210.17 35.65L210.5 35.98L210.83 36.32L211.15 36.66L211.46 37.02L211.76 37.38L212.06 37.75L212.34 38.13L212.62 38.51L212.89 38.9L213.15 39.29L213.4 39.7L213.64 40.11L213.87 40.52L213.94 40.57L214.05 40.65L214.18 40.74L214.34 40.86L214.53 40.99L214.74 41.15L214.98 41.32L215.23 41.51L215.51 41.71L215.8 41.92L216.11 42.15L216.44 42.38L216.78 42.63L217.12 42.89L217.48 43.15L217.85 43.42L218.22 43.69L218.6 43.97L218.98 44.25L219.75 44.81L220.13 45.09L220.5 45.36L220.88 45.64L221.24 45.9L221.6 46.17L221.95 46.42L222.29 46.67L222.61 46.91L222.92 47.13L223.22 47.35L223.49 47.55L223.75 47.73L223.98 47.9L224.2 48.06L224.38 48.19L224.55 48.31L224.68 48.41L224.78 48.48L224.86 48.53L225 48.63L225.16 48.74L225.31 48.86L225.47 48.99L225.64 49.13L225.82 49.28L225.99 49.44L226.18 49.6L226.36 49.78L226.56 49.96L226.75 50.15L226.95 50.35L227.15 50.55L227.36 50.77L227.56 50.99L227.77 51.22L227.99 51.45L228.2 51.7L228.42 51.95L228.63 52.21L228.85 52.47L229.07 52.74L229.29 53.02L229.51 53.3L229.73 53.59L229.95 53.89L230.17 54.19L230.39 54.5L230.61 54.81L230.83 55.13L231.04 55.45L231.25 55.78L231.47 56.12L231.67 56.45L231.88 56.8L232.09 57.14L232.29 57.5L232.48 57.85L232.68 58.21L232.87 58.58L232.99 58.82L233.11 59.08L233.23 59.33L233.35 59.6L233.47 59.87L233.58 60.15L233.69 60.44L233.8 60.73L233.91 61.02L234.02 61.33L234.12 61.64L234.22 61.95L234.32 62.28L234.42 62.6L234.52 62.94L234.61 63.28L234.7 63.63L234.79 63.98L234.88 64.34L234.96 64.71L235.05 65.08L235.13 65.46L235.21 65.84L235.29 66.24L235.36 66.63L235.43 67.04L235.5 67.45L235.57 67.87L235.64 68.29L235.71 68.72L235.77 69.15L235.83 69.59L235.89 70.04L235.94 70.5L236 70.96L236.05 71.42L236.1 71.9L236.15 72.38L236.2 72.86L236.24 73.36L236.24 149.21L236.24 149.58L236.23 149.95L236.21 150.32L236.19 150.69L236.16 151.05L236.12 151.42L236.08 151.78L236.03 152.14L235.98 152.49L235.92 152.85L235.85 153.2L235.78 153.55L235.7 153.9L235.62 154.25L235.53 154.59L235.43 154.93L235.33 155.27L235.22 155.61L235.11 155.95L234.99 156.28L234.87 156.61L234.74 156.93L234.61 157.26L234.47 157.58L234.32 157.9L234.17 158.21L234.01 158.53L233.85 158.83L233.69 159.14L233.52 159.44L233.34 159.74L233.16 160.04L232.98 160.33L232.79 160.62L232.59 160.91L232.39 161.19L232.19 161.47L231.98 161.75L231.76 162.02L231.55 162.29L231.54 162.3L231.53 162.32L231.52 162.33L231.51 162.34L231.5 162.35L231.49 162.37L231.49 162.38L231.48 162.39L231.47 162.4L231.46 162.42L231.45 162.43L231.44 162.44L231.43 162.45L231.42 162.46L231.41 162.48L231.4 162.49L231.39 162.5L231.38 162.51L231.37 162.52L231.36 162.53L231.35 162.54L231.34 162.56L231.33 162.57L231.32 162.58L231.31 162.59L231.3 162.6L231.29 162.61L231.28 162.62L231.27 162.63L231.26 162.64L231.25 162.65L231.24 162.67L231.23 162.68L231.22 162.69L231.21 162.7L231.2 162.71L231.19 162.72L231.17 162.73L231.16 162.74L231.15 162.75L230.87 163.07L230.57 163.39L230.27 163.69L229.97 164L229.65 164.29L229.34 164.58L229.01 164.87L228.68 165.15L228.35 165.42L228 165.68L227.66 165.93L227.3 166.18L226.95 166.43L226.58 166.66L226.21 166.89L225.84 167.11L225.46 167.32L225.08 167.52L224.69 167.72L224.3 167.91L223.9 168.09L223.5 168.26L223.09 168.42L222.68 168.58L222.27 168.72L221.85 168.86L221.43 168.99L221 169.11L220.57 169.22L220.14 169.32L219.7 169.41L219.26 169.5L218.82 169.57L218.37 169.64L217.92 169.69L217.47 169.74L217.02 169.77L216.56 169.8L216.1 169.81L215.64 169.82L93.81 169.82L92.96 169.8L92.12 169.75L91.29 169.66L90.47 169.55L89.66 169.4L88.86 169.22L88.08 169.01L87.3 168.77L86.54 168.49L85.8 168.2L85.07 167.87L84.35 167.51L83.65 167.13L82.96 166.73L82.3 166.29L81.65 165.84L81.02 165.36L80.41 164.85L79.82 164.32L79.25 163.78L78.7 163.21L78.17 162.61L77.67 162L77.19 161.37L76.73 160.73L76.3 160.06L75.89 159.37L75.51 158.67L75.16 157.96L74.83 157.23L74.53 156.48L74.26 155.72L74.02 154.95L73.81 154.16L73.63 153.36L73.48 152.55L73.36 151.73L73.27 150.9L73.22 150.06L73.21 149.21L73.21 73.35L73.23 71.98L73.28 70.66L73.38 69.38L73.51 68.14L73.67 66.95L73.87 65.79L74.1 64.68L74.35 63.61L74.64 62.58L74.94 61.58L75.27 60.63L75.63 59.71L76 58.83L76.4 57.98L76.81 57.17L77.23 56.39L77.67 55.64L78.12 54.93L78.58 54.25L79.05 53.6L79.53 52.98L80.02 52.39L80.5 51.82L80.99 51.29L81.48 50.78L81.97 50.29L82.46 49.83L82.94 49.4L83.42 48.99L83.89 48.6L84.35 48.24L84.8 47.89L85.23 47.57L85.65 47.26L86.06 46.98L86.45 46.71L86.82 46.46L87.17 46.22L87.49 46.01L87.8 45.8L95.59 40.51L95.82 40.1L96.06 39.69L96.3 39.29L96.56 38.89L96.83 38.5L97.11 38.12L97.39 37.74L97.69 37.38L97.99 37.02L98.3 36.66L98.62 36.32L98.95 35.98L99.28 35.65L99.62 35.32L99.97 35.01L100.33 34.7L100.69 34.41L101.07 34.12L101.45 33.83L101.83 33.56L102.22 33.3L102.62 33.05L103.03 32.8L103.44 32.57L103.86 32.34L104.28 32.13L104.71 31.92L105.14 31.72L105.58 31.54L106.03 31.36L106.48 31.2L106.93 31.05L107.39 30.9L107.86 30.77L108.33 30.65L108.8 30.54L109.28 30.44L109.76 30.36L110.25 30.28L110.74 30.22L141.5 9.32L142.11 8.92L142.72 8.54L143.34 8.19L143.97 7.85L144.61 7.53L145.25 7.24L145.9 6.96L146.56 6.7L147.22 6.47L147.88 6.25L148.55 6.06L149.23 5.89L149.9 5.73L150.58 5.6L151.27 5.49L151.95 5.4L152.64 5.32L153.33 5.27L154.02 5.24L154.71 5.23L155.4 5.24L156.09 5.27ZM80.73 61.25L80.59 61.55L80.46 61.85L80.32 62.15L80.2 62.45L80.07 62.76L79.95 63.06L79.83 63.37L79.72 63.68L79.61 63.99L79.5 64.3L79.4 64.61L79.3 64.92L79.21 65.24L79.12 65.55L79.03 65.87L78.94 66.19L78.86 66.5L78.79 66.82L78.71 67.14L78.64 67.46L78.58 67.78L78.51 68.11L78.46 68.43L78.4 68.75L78.35 69.08L78.3 69.4L78.26 69.73L78.22 70.06L78.18 70.38L78.15 70.71L78.12 71.04L78.1 71.37L78.08 71.7L78.06 72.03L78.04 72.36L78.03 72.69L78.03 73.02L78.03 73.35L78.03 149.21L78.03 149.43L78.03 149.65L78.04 149.87L78.05 150.09L78.07 150.31L78.08 150.53L78.1 150.74L78.12 150.96L78.15 151.17L78.18 151.39L78.21 151.6L78.24 151.81L78.28 152.02L78.32 152.23L78.36 152.44L78.41 152.65L78.45 152.86L78.5 153.06L78.56 153.27L78.61 153.47L78.67 153.68L78.73 153.88L78.8 154.08L78.86 154.28L78.93 154.48L79 154.67L79.08 154.87L79.15 155.06L79.23 155.26L79.31 155.45L79.4 155.64L79.48 155.83L79.57 156.02L79.66 156.2L79.76 156.39L79.85 156.57L79.95 156.75L80.05 156.93L80.15 157.11L80.26 157.29L117.96 122.67L118.04 122.61L118.11 122.54L118.19 122.49L118.27 122.43L118.35 122.38L118.44 122.33L118.52 122.29L118.61 122.25L118.69 122.21L118.78 122.18L118.87 122.15L118.96 122.12L119.05 122.1L119.14 122.08L119.23 122.06L119.33 122.05L119.42 122.04L119.51 122.04L119.6 122.04L119.69 122.04L119.79 122.05L119.88 122.05L119.97 122.07L120.06 122.08L120.15 122.1L120.24 122.13L120.33 122.15L120.42 122.18L120.51 122.22L120.59 122.25L120.68 122.3L120.76 122.34L120.84 122.39L120.92 122.44L121 122.49L121.08 122.55L121.16 122.61L121.23 122.68L121.3 122.75L121.37 122.82L121.43 122.89L121.5 122.97L121.55 123.05L121.61 123.13L121.66 123.21L121.71 123.29L121.75 123.38L121.79 123.46L121.83 123.55L121.86 123.64L121.89 123.73L121.92 123.82L121.94 123.91L121.96 124L121.98 124.09L121.99 124.18L122 124.27L122 124.37L122 124.46L122 124.55L121.99 124.64L121.99 124.74L121.97 124.83L121.96 124.92L121.94 125.01L121.91 125.1L121.89 125.19L121.86 125.28L121.82 125.36L121.79 125.45L121.74 125.53L121.7 125.62L121.65 125.7L121.6 125.78L121.55 125.86L121.49 125.94L121.43 126.01L121.36 126.08L121.29 126.16L121.22 126.22L83.34 161.01L83.48 161.13L83.63 161.25L83.78 161.38L83.95 161.49L84.11 161.61L84.29 161.73L84.46 161.85L84.65 161.96L84.84 162.07L85.04 162.19L85.24 162.3L85.45 162.41L85.67 162.52L85.89 162.62L86.12 162.73L86.35 162.84L86.59 162.94L86.84 163.04L87.09 163.14L87.35 163.24L87.62 163.34L87.89 163.44L88.16 163.54L88.45 163.63L88.74 163.73L89.03 163.82L89.33 163.91L89.64 164L89.95 164.09L90.27 164.18L90.6 164.27L90.93 164.35L91.27 164.44L91.62 164.52L91.97 164.6L92.32 164.68L92.69 164.76L93.05 164.84L93.43 164.92L93.81 165L93.81 165L215.64 165L215.94 164.99L216.24 164.98L216.54 164.97L216.83 164.95L217.13 164.93L217.42 164.9L217.71 164.86L218 164.82L218.29 164.77L218.58 164.72L218.86 164.66L219.14 164.6L219.42 164.54L219.7 164.46L219.98 164.39L220.26 164.31L220.53 164.22L220.8 164.13L221.07 164.03L221.33 163.93L221.6 163.83L221.86 163.72L222.12 163.6L222.38 163.48L222.63 163.36L222.88 163.23L223.13 163.1L223.38 162.96L223.62 162.82L223.86 162.68L224.1 162.53L224.33 162.37L224.57 162.22L224.8 162.06L225.02 161.89L225.25 161.72L225.47 161.55L225.68 161.37L225.9 161.19L226.11 161.01L162.75 102.84L162.41 102.53L162.05 102.24L161.69 101.96L161.32 101.7L160.94 101.46L160.55 101.23L160.16 101.02L159.77 100.82L159.36 100.64L158.96 100.47L158.55 100.32L158.13 100.19L157.71 100.07L157.29 99.97L156.87 99.88L156.44 99.81L156.01 99.75L155.58 99.71L155.15 99.69L154.72 99.68L154.29 99.69L153.86 99.71L153.43 99.75L153.01 99.81L152.58 99.88L152.16 99.97L151.73 100.07L151.32 100.19L150.9 100.32L150.49 100.47L150.08 100.64L149.68 100.82L149.29 101.02L148.9 101.23L148.51 101.46L148.13 101.7L147.76 101.96L147.4 102.24L147.04 102.53L146.69 102.84L129.1 118.99L129.02 119.06L128.95 119.12L128.87 119.18L128.79 119.23L128.71 119.29L128.62 119.33L128.54 119.38L128.45 119.42L128.37 119.45L128.28 119.49L128.19 119.52L128.1 119.54L128.01 119.57L127.92 119.59L127.83 119.6L127.73 119.61L127.64 119.62L127.55 119.63L127.46 119.63L127.36 119.63L127.27 119.62L127.18 119.61L127.09 119.6L127 119.58L126.91 119.56L126.82 119.54L126.73 119.51L126.64 119.48L126.55 119.45L126.47 119.41L126.38 119.37L126.3 119.33L126.22 119.28L126.13 119.23L126.06 119.17L125.98 119.11L125.9 119.05L125.83 118.99L125.76 118.92L125.69 118.85L125.63 118.77L125.56 118.7L125.5 118.62L125.45 118.54L125.4 118.46L125.35 118.37L125.31 118.29L125.27 118.2L125.23 118.12L125.2 118.03L125.17 117.94L125.14 117.85L125.12 117.76L125.1 117.67L125.08 117.58L125.07 117.48L125.06 117.39L125.06 117.3L125.06 117.21L125.06 117.11L125.06 117.02L125.07 116.93L125.09 116.84L125.1 116.75L125.12 116.66L125.15 116.57L125.17 116.48L125.2 116.39L125.24 116.3L125.27 116.22L125.31 116.13L125.36 116.05L125.41 115.97L125.46 115.89L125.51 115.81L125.57 115.73L125.63 115.65L125.7 115.58L125.76 115.51L125.84 115.44L136.64 105.52L81.02 60.66L80.87 60.95L80.73 61.25ZM229.19 157.29L229.29 157.11L229.4 156.93L229.5 156.75L229.6 156.57L229.69 156.39L229.79 156.2L229.88 156.02L229.97 155.83L230.05 155.64L230.14 155.45L230.22 155.26L230.3 155.06L230.37 154.87L230.45 154.67L230.52 154.48L230.59 154.28L230.65 154.08L230.72 153.88L230.78 153.68L230.84 153.47L230.89 153.27L230.95 153.06L231 152.86L231.04 152.65L231.09 152.44L231.13 152.23L231.17 152.02L231.21 151.81L231.24 151.6L231.27 151.39L231.3 151.17L231.32 150.96L231.35 150.74L231.37 150.53L231.38 150.31L231.4 150.09L231.41 149.87L231.42 149.65L231.42 149.43L231.42 149.21L231.42 73.36L231.42 73.02L231.41 72.69L231.4 72.36L231.39 72.03L231.37 71.7L231.35 71.37L231.33 71.04L231.3 70.71L231.27 70.39L231.23 70.06L231.19 69.73L231.15 69.41L231.1 69.08L231.05 68.76L230.99 68.43L230.93 68.11L230.87 67.79L230.81 67.47L230.74 67.14L230.66 66.82L230.58 66.51L230.5 66.19L230.42 65.87L230.33 65.55L230.24 65.24L230.14 64.92L230.04 64.61L229.94 64.3L229.84 63.99L229.73 63.68L229.61 63.37L229.5 63.06L229.37 62.76L229.25 62.45L229.12 62.15L228.99 61.85L228.86 61.55L228.72 61.25L228.58 60.95L228.43 60.66L172.81 105.52L229.19 157.29ZM153.61 10.09L153.06 10.13L152.52 10.19L151.97 10.26L151.43 10.35L150.89 10.46L150.35 10.58L149.82 10.72L149.28 10.87L148.75 11.04L148.23 11.23L147.71 11.43L147.19 11.65L146.68 11.89L146.17 12.14L145.67 12.41L145.18 12.69L144.69 12.99L144.21 13.31L119.52 30.08L170.78 30.08L170.88 30.08L170.97 30.09L171.07 30.1L171.17 30.11L171.26 30.13L171.36 30.15L171.45 30.17L171.54 30.2L171.63 30.23L171.72 30.27L171.8 30.31L171.89 30.35L171.97 30.39L172.05 30.44L172.12 30.49L172.2 30.54L172.27 30.6L172.35 30.66L172.42 30.72L172.48 30.79L172.55 30.85L172.61 30.92L172.67 30.99L172.72 31.07L172.78 31.14L172.83 31.22L172.87 31.3L172.92 31.38L172.96 31.47L173 31.55L173.03 31.64L173.06 31.73L173.09 31.82L173.12 31.91L173.14 32L173.16 32.1L173.17 32.2L173.18 32.29L173.19 32.39L173.19 32.49L173.19 32.59L173.18 32.69L173.17 32.79L173.16 32.88L173.14 32.98L173.12 33.07L173.09 33.16L173.06 33.25L173.03 33.34L173 33.43L172.96 33.51L172.92 33.6L172.87 33.68L172.83 33.76L172.78 33.84L172.72 33.91L172.67 33.99L172.61 34.06L172.55 34.13L172.48 34.2L172.41 34.26L172.35 34.32L172.27 34.38L172.2 34.44L172.12 34.49L172.05 34.54L171.97 34.59L171.88 34.63L171.8 34.67L171.72 34.71L171.63 34.75L171.54 34.78L171.45 34.81L171.36 34.83L171.26 34.85L171.17 34.87L171.07 34.88L170.97 34.89L170.88 34.9L170.78 34.9L113.04 34.9L112.42 34.91L111.81 34.95L111.2 35.01L110.61 35.1L110.02 35.21L109.44 35.34L108.86 35.49L108.3 35.67L107.75 35.86L107.2 36.08L106.67 36.32L106.15 36.58L105.64 36.86L105.14 37.15L104.66 37.47L104.18 37.8L103.72 38.15L103.28 38.52L102.85 38.9L102.43 39.3L102.04 39.72L101.65 40.15L101.28 40.59L100.93 41.05L100.6 41.52L100.29 42.01L99.99 42.5L99.71 43.01L99.45 43.54L99.22 44.07L99 44.61L98.8 45.17L98.63 45.73L98.47 46.3L98.34 46.88L98.23 47.47L98.15 48.07L98.09 48.67L98.05 49.29L98.04 49.9L98.04 68.19L140.23 102.23L143.43 99.28L143.67 99.07L143.9 98.87L144.14 98.67L144.39 98.47L144.63 98.28L144.88 98.09L145.14 97.91L145.39 97.74L145.65 97.57L145.91 97.4L146.17 97.24L146.44 97.08L146.71 96.93L146.98 96.79L147.26 96.65L147.53 96.51L147.81 96.38L148.09 96.26L148.38 96.14L148.66 96.02L148.95 95.91L149.24 95.81L149.53 95.71L149.83 95.62L150.12 95.53L150.42 95.45L150.72 95.37L151.02 95.3L151.32 95.24L151.63 95.18L151.93 95.12L152.24 95.07L152.54 95.03L152.85 94.99L153.16 94.96L153.47 94.93L153.78 94.91L154.1 94.9L154.41 94.89L154.72 94.89L155.04 94.89L155.35 94.9L155.66 94.91L155.98 94.93L156.29 94.96L156.6 94.99L156.9 95.03L157.21 95.07L157.52 95.12L157.82 95.18L158.13 95.24L158.43 95.3L158.73 95.37L159.03 95.45L159.32 95.53L159.62 95.62L159.91 95.71L160.21 95.81L160.5 95.91L160.78 96.02L161.07 96.14L161.35 96.26L161.63 96.38L161.91 96.51L162.19 96.65L162.47 96.79L162.74 96.93L163.01 97.08L163.27 97.24L163.54 97.4L163.8 97.57L164.06 97.74L164.31 97.91L164.57 98.1L164.82 98.28L165.06 98.47L165.31 98.67L165.55 98.87L165.78 99.07L166.02 99.28L169.22 102.23L211.41 68.19L211.41 49.9L211.4 49.29L211.36 48.67L211.3 48.07L211.22 47.47L211.11 46.88L210.98 46.3L210.82 45.73L210.65 45.17L210.45 44.61L210.23 44.07L209.99 43.54L209.74 43.01L209.46 42.5L209.16 42.01L208.85 41.52L208.51 41.05L208.16 40.59L207.8 40.14L207.41 39.71L207.01 39.3L206.6 38.9L206.17 38.52L205.72 38.15L205.26 37.8L204.79 37.47L204.31 37.15L203.81 36.86L203.3 36.58L202.78 36.32L202.24 36.08L201.7 35.86L201.15 35.67L200.58 35.49L200.01 35.34L199.43 35.21L198.84 35.1L198.24 35.01L197.64 34.95L197.03 34.91L196.41 34.9L181.79 34.9L181.69 34.9L181.59 34.89L181.49 34.88L181.4 34.87L181.3 34.85L181.21 34.83L181.12 34.81L181.03 34.78L180.94 34.75L180.85 34.71L180.77 34.67L180.68 34.63L180.6 34.59L180.52 34.54L180.44 34.49L180.37 34.44L180.29 34.38L180.22 34.32L180.15 34.26L180.08 34.19L180.02 34.13L179.96 34.06L179.9 33.99L179.84 33.91L179.79 33.84L179.74 33.76L179.69 33.68L179.65 33.6L179.61 33.51L179.57 33.43L179.53 33.34L179.5 33.25L179.47 33.16L179.45 33.07L179.43 32.98L179.41 32.88L179.4 32.79L179.39 32.69L179.38 32.59L179.38 32.49L179.38 32.39L179.39 32.29L179.4 32.19L179.41 32.1L179.43 32L179.45 31.91L179.47 31.82L179.5 31.73L179.53 31.64L179.57 31.55L179.61 31.47L179.65 31.38L179.69 31.3L179.74 31.22L179.79 31.14L179.84 31.07L179.9 30.99L179.96 30.92L180.02 30.85L180.08 30.79L180.15 30.72L180.22 30.66L180.29 30.6L180.37 30.54L180.44 30.49L180.52 30.44L180.6 30.39L180.68 30.35L180.77 30.31L180.85 30.27L180.94 30.23L181.03 30.2L181.12 30.17L181.21 30.15L181.3 30.13L181.4 30.11L181.49 30.1L181.59 30.09L181.69 30.08L181.79 30.08L189.91 30.08L165.2 13.31L164.72 12.99L164.23 12.69L163.74 12.4L163.24 12.14L162.73 11.88L162.22 11.65L161.71 11.43L161.18 11.23L160.66 11.04L160.13 10.87L159.6 10.72L159.06 10.58L158.52 10.46L157.98 10.35L157.44 10.26L156.9 10.19L156.35 10.13L155.8 10.09L155.25 10.07L154.71 10.06L154.16 10.07L153.61 10.09ZM89.51 50.5L88.54 51.25L87.62 52.03L86.73 52.86L85.88 53.72L85.07 54.61L84.29 55.54L83.55 56.51L93.21 64.3L93.21 49.9L93.22 49.65L93.22 49.39L93.23 49.14L93.24 48.88L93.25 48.63L93.27 48.38L93.29 48.13L93.32 47.88L90.5 49.79L89.51 50.5ZM216.18 48.39L216.19 48.64L216.21 48.89L216.22 49.14L216.23 49.39L216.23 49.65L216.23 49.9L216.23 64.3L225.9 56.51L225.37 55.83L224.74 55.11L224.02 54.34L223.2 53.52L222.28 52.66L221.26 51.75L220.15 50.79L218.94 49.79L216.13 47.89L216.16 48.13L216.18 48.39Z" id="asKgdgAiA"></path><path d="M245.62 19.91L244.33 19.03C244.31 15.39 244.3 13.37 244.3 12.96C244.3 12.71 244.15 12.47 243.92 12.36C243.69 12.25 243.41 12.28 243.21 12.43C242.89 12.68 241.29 13.92 238.41 16.15C234.94 15.04 233.02 14.43 232.63 14.3C232.39 14.23 232.12 14.29 231.94 14.48C231.76 14.66 231.7 14.93 231.79 15.18C231.93 15.56 232.61 17.46 233.84 20.89C231.72 23.84 230.54 25.48 230.3 25.81C230.15 26.02 230.13 26.3 230.25 26.52C230.37 26.75 230.61 26.89 230.87 26.88C231.28 26.87 233.3 26.81 236.94 26.7C239.09 29.63 240.29 31.26 240.53 31.59C240.68 31.79 240.94 31.9 241.19 31.85C241.44 31.81 241.65 31.62 241.72 31.37C241.83 30.99 242.4 29.05 243.42 25.55C246.87 24.41 248.79 23.77 249.18 23.65C249.28 23.61 249.38 23.55 249.45 23.47C249.55 23.37 249.61 23.24 249.63 23.1C249.67 22.84 249.56 22.59 249.35 22.44C249.21 22.35 248.51 21.88 247.26 21.03" id="a1jBnyMORo"></path><path d="M238.14 25.44C238.14 25.44 238.14 25.44 238.14 25.44C237.84 25.03 237.33 25.01 237.33 25.01C237.33 25.01 237.33 25.01 237.33 25.01C233.98 25.12 232.12 25.18 231.75 25.19C231.49 25.19 231.25 25.06 231.13 24.83C231.11 24.79 231.1 24.76 231.09 24.72C231.01 24.83 230.38 25.7 230.3 25.81C230.15 26.02 230.13 26.3 230.25 26.52C230.37 26.75 230.61 26.89 230.87 26.88C231.28 26.87 233.3 26.81 236.94 26.7C239.09 29.63 240.29 31.26 240.53 31.59C240.68 31.79 240.94 31.9 241.19 31.85C241.44 31.81 241.65 31.62 241.72 31.38C241.76 31.25 242.04 30.28 242.08 30.15C242.07 30.15 242.07 30.15 242.07 30.16C241.81 30.2 241.56 30.1 241.4 29.89C240.75 29 238.47 25.89 238.14 25.44Z" id="h44MN9q8r"></path><path d="M241.3 32.46C240.81 32.54 240.32 32.35 240.03 31.95C239.8 31.64 238.67 30.1 236.63 27.32C233.19 27.43 231.27 27.49 230.89 27.5C230.4 27.51 229.94 27.25 229.71 26.81C229.48 26.38 229.51 25.86 229.8 25.45C230.03 25.14 231.14 23.59 233.15 20.79C231.99 17.55 231.34 15.74 231.21 15.38C231.05 14.92 231.15 14.41 231.5 14.05C231.84 13.7 232.35 13.57 232.82 13.72C233.18 13.83 235.01 14.42 238.29 15.46C241.02 13.35 242.53 12.18 242.83 11.95C243.22 11.64 243.74 11.59 244.19 11.81C244.63 12.02 244.91 12.47 244.91 12.96C244.92 13.34 244.93 15.26 244.94 18.71C245.55 19.12 245.89 19.35 245.96 19.4C246.24 19.59 246.31 19.97 246.12 20.25C245.93 20.53 245.55 20.61 245.27 20.41C245.14 20.33 244.11 19.63 243.98 19.54C243.82 19.43 243.72 19.24 243.72 19.03C243.71 18.43 243.69 13.57 243.68 12.97C243.68 12.94 243.67 12.92 243.65 12.91C243.63 12.9 243.6 12.9 243.58 12.92C243.11 13.29 239.27 16.26 238.79 16.63C238.63 16.76 238.42 16.8 238.23 16.73C237.65 16.55 233.02 15.07 232.45 14.89C232.4 14.87 232.35 14.92 232.37 14.97C232.57 15.54 234.22 20.11 234.42 20.68C234.49 20.87 234.46 21.08 234.34 21.24C233.99 21.74 231.15 25.68 230.8 26.17C230.79 26.19 230.78 26.22 230.8 26.24C230.81 26.26 230.83 26.27 230.85 26.27C231.46 26.25 236.31 26.1 236.92 26.08C237.12 26.08 237.31 26.17 237.43 26.33C237.79 26.82 240.66 30.73 241.02 31.22C241.03 31.24 241.06 31.25 241.08 31.25C241.1 31.24 241.12 31.23 241.13 31.2C241.3 30.62 242.66 25.96 242.83 25.38C242.88 25.18 243.03 25.03 243.22 24.97C243.8 24.78 248.41 23.25 248.98 23.06C249 23.06 249.02 23.05 249.03 23.01C249.03 22.99 249.02 22.97 249 22.95C248.79 22.81 247.12 21.68 246.91 21.53C246.63 21.34 246.56 20.96 246.75 20.68C246.94 20.4 247.33 20.33 247.61 20.52C247.81 20.66 249.48 21.8 249.69 21.94C250.1 22.22 250.31 22.69 250.24 23.18C250.2 23.46 250.08 23.7 249.89 23.9C249.75 24.05 249.57 24.16 249.37 24.23C249.01 24.35 247.19 24.95 243.92 26.03C242.95 29.34 242.42 31.18 242.31 31.55C242.25 31.75 242.14 31.94 242 32.08C241.82 32.28 241.57 32.41 241.3 32.46Z" id="bAEY2p88Z"></path><path d="" id="dRapPdlJJ"></path></defs><g><g><g><use xlink:href="#kuNE6LY37" opacity="1" fill="#ffd960" fill-opacity="1"></use><g><use xlink:href="#kuNE6LY37" opacity="1" fill-opacity="0" stroke="#000000" stroke-width="1" stroke-opacity="0"></use></g></g><g><use xlink:href="#h2IsBqf4P" opacity="1" fill="#231f20" fill-opacity="1"></use><g><use xlink:href="#h2IsBqf4P" opacity="1" fill-opacity="0" stroke="#000000" stroke-width="1" stroke-opacity="0"></use></g></g><g><use xlink:href="#i3OnF3Z6u4" opacity="1" fill="#ffd960" fill-opacity="1"></use><g><use xlink:href="#i3OnF3Z6u4" opacity="1" fill-opacity="0" stroke="#000000" stroke-width="1" stroke-opacity="0"></use></g></g><g><use xlink:href="#bo8FuKbHA" opacity="1" fill="#ffd960" fill-opacity="1"></use><g><use xlink:href="#bo8FuKbHA" opacity="1" fill-opacity="0" stroke="#000000" stroke-width="1" stroke-opacity="0"></use></g></g><g><use xlink:href="#f2soEAIOIr" opacity="1" fill="#231f20" fill-opacity="1"></use><g><use xlink:href="#f2soEAIOIr" opacity="1" fill-opacity="0" stroke="#000000" stroke-width="1" stroke-opacity="0"></use></g></g><g><use xlink:href="#c417Kgmw7" opacity="1" fill="#231f20" fill-opacity="1"></use><g><use xlink:href="#c417Kgmw7" opacity="1" fill-opacity="0" stroke="#000000" stroke-width="1" stroke-opacity="0"></use></g></g><g><use xlink:href="#b2MuTZbbwA" opacity="1" fill="#231f20" fill-opacity="1"></use><g><use xlink:href="#b2MuTZbbwA" opacity="1" fill-opacity="0" stroke="#000000" stroke-width="1" stroke-opacity="0"></use></g></g><g><use xlink:href="#hSrMkbeVm" opacity="1" fill="#231f20" fill-opacity="1"></use><g><use xlink:href="#hSrMkbeVm" opacity="1" fill-opacity="0" stroke="#000000" stroke-width="1" stroke-opacity="0"></use></g></g><g><use xlink:href="#l2sNl8O9zO" opacity="1" fill="#231f20" fill-opacity="1"></use><g><use xlink:href="#l2sNl8O9zO" opacity="1" fill-opacity="0" stroke="#000000" stroke-width="1" stroke-opacity="0"></use></g></g><g><use xlink:href="#a6yO2ZSyt6" opacity="1" fill="#4a994a" fill-opacity="1"></use><g><use xlink:href="#a6yO2ZSyt6" opacity="1" fill-opacity="0" stroke="#000000" stroke-width="1" stroke-opacity="0"></use></g></g><g><use xlink:href="#av5Gojwnw" opacity="1" fill="#ff5555" fill-opacity="1"></use><g><use xlink:href="#av5Gojwnw" opacity="1" fill-opacity="0" stroke="#000000" stroke-width="1" stroke-opacity="0"></use></g></g><g><use xlink:href="#b2vyxWrOhI" opacity="1" fill="#e04141" fill-opacity="1"></use><g><use xlink:href="#b2vyxWrOhI" opacity="1" fill-opacity="0" stroke="#000000" stroke-width="1" stroke-opacity="0"></use></g></g><g><use xlink:href="#a3PsqtZxl7" opacity="1" fill="#ffffff" fill-opacity="1"></use><g><use xlink:href="#a3PsqtZxl7" opacity="1" fill-opacity="0" stroke="#000000" stroke-width="1" stroke-opacity="0"></use></g></g><g><use xlink:href="#b2ORrhb8s" opacity="1" fill="#67b758" fill-opacity="1"></use><g><use xlink:href="#b2ORrhb8s" opacity="1" fill-opacity="0" stroke="#000000" stroke-width="1" stroke-opacity="0"></use></g></g><g><use xlink:href="#bcj4px5qR" opacity="1" fill="#5aaa4f" fill-opacity="1"></use><g><use xlink:href="#bcj4px5qR" opacity="1" fill-opacity="0" stroke="#000000" stroke-width="1" stroke-opacity="0"></use></g></g><g><use xlink:href="#a8HYNb0HSH" opacity="1" fill="#7ec66a" fill-opacity="1"></use><g><use xlink:href="#a8HYNb0HSH" opacity="1" fill-opacity="0" stroke="#000000" stroke-width="1" stroke-opacity="0"></use></g></g><g><use xlink:href="#a8DngKsvm" opacity="1" fill="#67b758" fill-opacity="1"></use><g><use xlink:href="#a8DngKsvm" opacity="1" fill-opacity="0" stroke="#000000" stroke-width="1" stroke-opacity="0"></use></g></g><g><use xlink:href="#asKgdgAiA" opacity="1" fill="#000000" fill-opacity="1"></use><g><use xlink:href="#asKgdgAiA" opacity="1" fill-opacity="0" stroke="#000000" stroke-width="1" stroke-opacity="0"></use></g></g><g><use xlink:href="#a1jBnyMORo" opacity="1" fill="#ffd960" fill-opacity="1"></use><g><use xlink:href="#a1jBnyMORo" opacity="1" fill-opacity="0" stroke="#000000" stroke-width="1" stroke-opacity="0"></use></g></g><g><use xlink:href="#h44MN9q8r" opacity="1" fill="#231f20" fill-opacity="1"></use><g><use xlink:href="#h44MN9q8r" opacity="1" fill-opacity="0" stroke="#000000" stroke-width="1" stroke-opacity="0"></use></g></g><g><use xlink:href="#bAEY2p88Z" opacity="1" fill="#231f20" fill-opacity="1"></use><g><use xlink:href="#bAEY2p88Z" opacity="1" fill-opacity="0" stroke="#000000" stroke-width="1" stroke-opacity="0"></use></g></g><g><g><use xlink:href="#dRapPdlJJ" opacity="1" fill-opacity="0" stroke="#000000" stroke-width="1" stroke-opacity="1"></use></g></g></g></g></svg>