<?xml version="1.0" encoding="iso-8859-1"?>
<!-- Generator: Adobe Illustrator 19.0.0, SVG Export Plug-In . SVG Version: 6.00 Build 0)  -->
<svg version="1.1" id="Capa_1" xmlns="http://www.w3.org/2000/svg" xmlns:xlink="http://www.w3.org/1999/xlink" x="0px" y="0px"
	 viewBox="0 0 512 512" style="enable-background:new 0 0 512 512;" xml:space="preserve">
<path style="fill:#4A994A;" d="M445.494,504.502H66.505c-31.258,0-56.597-25.339-56.597-56.597V211.908
	c0-31.837,15.767-61.607,42.101-79.497L219.078,18.92c22.254-15.118,51.481-15.121,73.737-0.008l167.158,113.501
	c26.345,17.888,42.118,47.665,42.118,79.508v235.984C502.091,479.163,476.752,504.502,445.494,504.502z"/>
<path style="fill:#FF5555;" d="M439.848,424.829H72.152V138.964c0-29.916,24.252-54.168,54.168-54.168h259.36
	c29.916,0,54.168,24.252,54.168,54.168v285.865H439.848z"/>
<path style="fill:#E04141;" d="M439.848,424.829V161.012c0,0-97.382,80.346-185.227,80.346s-182.47-80.657-182.47-80.346v263.818
	H439.848z"/>
<path style="fill:#FFFFFF;" d="M315.523,211.663L309.179,208l3.099-0.87c3.987-1.119,6.312-5.259,5.193-9.246
	c-1.119-3.987-5.264-6.313-9.246-5.193l-17.2,4.827l-21.874-12.629l17.524-10.117l22.825,4.302c4.401,0.754,8.08-2.38,8.759-5.979
	c0.768-4.069-1.91-7.991-5.979-8.759l-5.676-1.07l8.92-5.15c3.586-2.071,4.815-6.657,2.745-10.243
	c-2.07-3.587-6.658-4.814-10.243-2.745l-7.593,4.383l1.054-3.292c1.262-3.944-0.912-8.166-4.856-9.429
	c-3.943-1.259-8.166,0.913-9.429,4.856l-6.085,19.016l-19.462,11.236v-20.202l14.283-16.165c2.743-3.104,2.45-7.843-0.654-10.584
	c-3.104-2.744-7.845-2.451-10.584,0.654l-3.045,3.445v-6.429c0-4.142-3.356-7.499-7.499-7.499c-4.142,0-7.499,3.356-7.499,7.499
	v6.43l-3.046-3.446c-2.744-3.105-7.482-3.397-10.584-0.654c-3.104,2.742-3.396,7.481-0.654,10.584l14.284,16.165v20.202
	l-19.215-11.093l-6.046-19.415c-1.232-3.954-5.434-6.159-9.39-4.931c-3.954,1.231-6.162,5.436-4.931,9.39l1.215,3.899l-4.312-2.49
	c-3.588-2.071-8.175-0.843-10.243,2.745c-2.071,3.586-0.842,8.173,2.745,10.243l4.714,2.722l-5.052,0.912
	c-4.075,0.735-6.783,4.636-6.048,8.712c0.654,3.625,3.21,6.729,8.712,6.048l22.5-4.059l17.853,10.307l-21.586,12.463l-17.591-5.096
	c-3.978-1.15-8.137,1.138-9.29,5.116c-1.152,3.978,1.139,8.138,5.116,9.29l3.755,1.088l-3.084,1.78
	c-3.586,2.071-4.815,6.657-2.745,10.243c1.389,2.406,5.377,5.265,10.243,2.745l2.953-1.705l-2.109,4.912
	c-1.634,3.806,0.127,8.216,3.933,9.848c0.965,0.414,7.152,2.093,9.848-3.933l10.022-23.353l18.03-10.409v24.466l-14.284,16.165
	c-2.743,3.104-2.45,7.843,0.654,10.584c3.103,2.743,7.841,2.449,10.584-0.654l3.046-3.446v6.43c0,4.142,3.356,7.499,7.499,7.499
	s7.499-3.356,7.499-7.499v-6.429l3.045,3.445c1.482,1.678,3.547,2.534,5.622,2.534c1.765,0,3.536-0.619,4.962-1.88
	c3.104-2.742,3.396-7.481,0.654-10.584l-14.283-16.165v-24.466l17.611,10.167l10.008,23.872c3.036,6.001,8.869,4.412,9.815,4.016
	c3.818-1.603,5.617-5.996,4.016-9.815l-2.384-5.685l7.304,4.217c4.615,2.408,8.855-0.339,10.243-2.745
	C320.339,218.321,319.109,213.734,315.523,211.663z"/>
<path style="fill:#67B758;" d="M24.504,161.011c-9.398,15.052-14.596,32.632-14.596,50.897v235.997
	c0,31.258,25.339,56.597,56.597,56.597h378.989c31.258,0,56.597-25.339,56.597-56.597V211.921c0-18.271-5.201-35.855-14.604-50.91
	L256,347.74L24.504,161.011z"/>
<path style="fill:#5AAA4F;" d="M340.122,279.884L256,347.74l-84.123-67.855L9.908,428.606v19.299
	c0,31.258,25.339,56.597,56.597,56.597h378.989c31.258,0,56.597-25.339,56.597-56.597v-19.299L340.122,279.884z"/>
<path style="fill:#7EC66A;" d="M23.203,484.268L23.203,484.268c10.382,12.366,25.949,20.234,43.359,20.234h378.989
	c17.315,0,32.804-7.784,43.186-20.033l0.06-0.201l-202.744-186.16c-16.996-15.607-43.11-15.607-60.107,0L23.203,484.268z"/>
<path style="fill:#67B758;" d="M374.643,430.353l-75.104-68.961c-3.052-2.802-3.253-7.545-0.452-10.595
	c2.801-3.053,7.545-3.251,10.595-0.452l75.104,68.961c3.052,2.802,3.254,7.545,0.452,10.595
	C383.76,431.512,379.167,434.074,374.643,430.353z"/>
<path d="M509.59,211.921c0-59.067-33.4-77.561-45.404-85.713l-24.199-16.431c-9.359-17.343-26.785-29.709-47.217-32.06
	l-95.742-65.01c-24.958-16.945-57.209-16.942-82.165,0.009l-95.698,65.009c-20.392,2.369-37.783,14.712-47.137,32.021
	l-24.233,16.461C35.793,134.362,2.41,154.159,2.41,211.908v235.996C2.41,483.247,31.163,512,66.504,512h378.99
	c19.235,0,36.505-8.53,48.264-21.991c0.462-0.418,0.875-0.889,1.225-1.42c9.122-11.075,14.606-25.252,14.606-40.686L509.59,211.921
	L509.59,211.921z M494.593,211.921v235.984c0,9.18-2.539,17.775-6.941,25.132L312.261,311.992L485.29,172.418
	C491.396,184.665,494.593,198.166,494.593,211.921z M455.762,138.617c8.431,5.724,15.673,12.748,21.64,20.896l-30.054,24.243
	v-44.791c0-2.119-0.108-4.212-0.318-6.277L455.762,138.617z M126.32,92.295h179.618c4.142,0,7.499-3.356,7.499-7.499
	s-3.356-7.499-7.499-7.499H146.487l76.804-52.175c19.836-13.475,45.472-13.479,65.312-0.007l76.849,52.181h-25.256
	c-4.142,0-7.499,3.356-7.499,7.499s3.356,7.499,7.499,7.499h45.483c25.733,0,46.67,20.936,46.67,46.67v56.889l-131.259,105.88
	l-9.965-9.151c-9.607-8.822-22.082-13.68-35.125-13.68c-13.043,0-25.517,4.857-35.125,13.68l-9.965,9.151L79.65,195.858v-56.894
	C79.65,113.231,100.587,92.295,126.32,92.295z M56.223,138.614l8.749-5.943c-0.211,2.07-0.319,4.169-0.319,6.293v44.797
	l-30.063-24.249C40.555,151.364,47.794,144.34,56.223,138.614z M66.505,497.003c-12.49,0-23.9-4.696-32.574-12.405l117.85-108.211
	c3.052-2.802,3.253-7.545,0.452-10.595c-2.801-3.052-7.544-3.253-10.595-0.452L24.348,473.037
	c-4.402-7.357-6.941-15.952-6.941-25.132V211.908c0-13.752,3.194-27.247,9.296-39.49l173.035,139.574l-33.603,30.854
	c-3.052,2.802-3.253,7.545-0.452,10.595c2.803,3.053,7.544,3.253,10.595,0.452l54.74-50.263c14.242-13.076,35.721-13.076,49.963,0
	l197.087,180.967c-8.675,7.709-20.083,12.405-32.574,12.405H66.505V497.003z"/>
<g>
</g>
<g>
</g>
<g>
</g>
<g>
</g>
<g>
</g>
<g>
</g>
<g>
</g>
<g>
</g>
<g>
</g>
<g>
</g>
<g>
</g>
<g>
</g>
<g>
</g>
<g>
</g>
<g>
</g>
</svg>
