<?xml version="1.0" encoding="UTF-8" standalone="no"?>
<!DOCTYPE svg PUBLIC "-//W3C//DTD SVG 1.1//EN" "http://www.w3.org/Graphics/SVG/1.1/DTD/svg11.dtd">
<svg version="1.1" xmlns="http://www.w3.org/2000/svg" xmlns:xlink="http://www.w3.org/1999/xlink" preserveAspectRatio="xMidYMid meet" viewBox="0 0 640 435" width="640" height="435"><defs><path d="M323.02 1.57L324.49 1.7L325.95 1.9L327.38 2.14L328.8 2.44L330.2 2.78L331.58 3.18L332.94 3.62L334.28 4.11L335.6 4.65L336.89 5.24L338.15 5.86L339.39 6.54L340.6 7.25L341.78 8.01L342.94 8.8L344.06 9.64L345.16 10.51L346.22 11.42L347.25 12.37L348.24 13.36L349.2 14.37L350.12 15.42L351.01 16.51L351.86 17.62L352.67 18.77L353.44 19.94L354.16 21.15L354.85 22.38L355.49 23.63L356.09 24.92L356.64 26.22L357.15 27.55L357.61 28.9L358.02 30.28L358.39 31.67L358.7 33.08L358.96 34.52L359.17 35.96L458.87 135.66L596.62 135.66L598.4 135.7L600.17 135.81L601.92 135.99L603.65 136.23L605.36 136.55L607.04 136.93L608.7 137.37L610.33 137.88L611.93 138.45L613.5 139.08L615.04 139.77L616.55 140.52L618.03 141.32L619.47 142.18L620.88 143.09L622.24 144.05L623.57 145.07L624.86 146.13L626.11 147.24L627.31 148.4L628.46 149.6L629.57 150.84L630.64 152.13L631.65 153.46L632.61 154.83L633.52 156.23L634.38 157.67L635.19 159.15L635.93 160.66L636.62 162.2L637.25 163.78L637.82 165.38L638.33 167.01L638.78 168.67L639.16 170.35L639.47 172.05L639.72 173.78L639.9 175.53L640 177.3L640.04 179.09L640.04 389.44L640 391.23L639.9 392.99L639.72 394.74L639.47 396.47L639.16 398.18L638.78 399.86L638.33 401.52L637.82 403.15L637.25 404.75L636.62 406.32L635.93 407.87L635.19 409.38L634.38 410.85L633.53 412.3L632.61 413.7L631.65 415.07L630.64 416.4L629.58 417.68L628.47 418.93L627.31 420.13L626.11 421.29L624.86 422.4L623.57 423.46L622.25 424.47L620.88 425.44L619.47 426.35L618.03 427.2L616.56 428.01L615.05 428.75L613.5 429.44L611.93 430.07L610.33 430.64L608.7 431.15L607.04 431.6L605.36 431.98L603.65 432.29L601.92 432.54L600.17 432.72L598.4 432.83L596.62 432.86L43.46 432.86L41.68 432.83L39.91 432.72L38.16 432.54L36.43 432.29L34.72 431.98L33.04 431.6L31.38 431.15L29.75 430.64L28.15 430.07L26.58 429.44L25.03 428.76L23.52 428.01L22.05 427.21L20.61 426.35L19.2 425.44L17.83 424.47L16.51 423.46L15.22 422.4L13.97 421.29L12.77 420.13L11.62 418.93L10.51 417.68L9.44 416.4L8.43 415.07L7.47 413.7L6.55 412.3L5.7 410.85L4.89 409.38L4.15 407.87L3.46 406.33L2.83 404.75L2.26 403.15L1.75 401.52L1.3 399.86L0.92 398.18L0.61 396.47L0.36 394.74L0.18 392.99L0.08 391.23L0.04 389.44L0.04 179.09L0.08 177.3L0.18 175.53L0.36 173.78L0.61 172.05L0.92 170.35L1.3 168.67L1.75 167.01L2.26 165.38L2.83 163.78L3.46 162.2L4.15 160.66L4.89 159.15L5.7 157.67L6.55 156.23L7.47 154.83L8.43 153.46L9.44 152.13L10.51 150.84L11.62 149.6L12.77 148.4L13.97 147.24L15.22 146.13L16.51 145.07L17.83 144.05L19.2 143.09L20.61 142.18L22.05 141.32L23.52 140.52L25.03 139.77L26.58 139.08L28.15 138.45L29.75 137.88L31.38 137.37L33.04 136.93L34.72 136.55L36.43 136.23L38.16 135.99L39.91 135.81L41.68 135.7L43.46 135.66L181.21 135.66L280.91 35.96L281.12 34.52L281.38 33.08L281.69 31.67L282.05 30.28L282.47 28.9L282.93 27.55L283.43 26.22L283.99 24.91L284.59 23.63L285.23 22.38L285.91 21.15L286.64 19.94L287.41 18.77L288.22 17.62L289.07 16.51L289.95 15.42L290.88 14.37L291.84 13.35L292.83 12.37L293.86 11.42L294.92 10.51L296.01 9.64L297.14 8.8L298.29 8.01L299.48 7.25L300.69 6.54L301.93 5.86L303.19 5.24L304.48 4.65L305.8 4.11L307.13 3.62L308.49 3.18L309.87 2.78L311.27 2.44L312.69 2.14L314.13 1.9L315.58 1.7L317.05 1.57L318.54 1.48L320.04 1.45L321.54 1.48L323.02 1.57ZM42.59 157.99L41.73 158.04L40.88 158.13L40.04 158.25L39.21 158.4L38.39 158.59L37.59 158.8L36.8 159.05L36.02 159.33L35.25 159.63L34.5 159.97L33.77 160.33L33.05 160.72L32.35 161.14L31.67 161.58L31 162.05L30.35 162.54L29.73 163.06L29.12 163.6L28.54 164.16L27.98 164.75L27.44 165.35L26.92 165.98L26.43 166.63L25.96 167.29L25.52 167.97L25.1 168.67L24.71 169.39L24.34 170.13L24.01 170.88L23.7 171.64L23.43 172.42L23.18 173.21L22.96 174.02L22.78 174.84L22.62 175.67L22.5 176.51L22.42 177.36L22.36 178.22L22.35 179.09L22.35 389.44L22.36 390.31L22.42 391.17L22.5 392.02L22.62 392.86L22.78 393.69L22.96 394.51L23.18 395.31L23.43 396.11L23.7 396.89L24.01 397.65L24.34 398.4L24.71 399.13L25.1 399.85L25.52 400.55L25.96 401.24L26.43 401.9L26.92 402.55L27.44 403.17L27.98 403.78L28.54 404.36L29.12 404.93L29.73 405.47L30.35 405.98L31 406.48L31.67 406.94L32.35 407.39L33.05 407.8L33.77 408.19L34.5 408.56L35.25 408.89L36.02 409.2L36.8 409.48L37.59 409.72L38.39 409.94L39.21 410.12L40.04 410.28L40.88 410.4L41.73 410.48L42.59 410.54L43.46 410.55L596.62 410.55L597.2 410.54L597.77 410.5L598.35 410.44L598.92 410.34L599.49 410.22L600.06 410.08L600.62 409.91L601.19 409.71L601.75 409.49L602.3 409.23L602.86 408.96L603.41 408.65L603.96 408.32L604.5 407.97L605.04 407.59L605.58 407.18L606.12 406.74L606.66 406.28L607.19 405.79L607.72 405.28L608.24 404.73L608.77 404.17L609.29 403.57L609.81 402.95L610.32 402.31L610.84 401.63L611.35 400.93L611.85 400.21L612.36 399.46L612.86 398.68L613.36 397.87L613.86 397.04L614.35 396.18L614.84 395.3L615.33 394.39L615.82 393.45L616.3 392.49L616.78 391.5L617.26 390.48L617.73 389.44L617.73 179.09L617.72 178.22L617.66 177.36L617.58 176.51L617.46 175.67L617.3 174.84L617.12 174.02L616.9 173.21L616.66 172.42L616.38 171.64L616.07 170.88L615.74 170.13L615.37 169.39L614.98 168.67L614.57 167.97L614.12 167.29L613.65 166.63L613.16 165.98L612.64 165.35L612.1 164.75L611.54 164.16L610.96 163.6L610.35 163.06L609.73 162.54L609.08 162.05L608.42 161.58L607.73 161.14L607.03 160.72L606.31 160.33L605.58 159.97L604.83 159.63L604.06 159.33L603.28 159.05L602.49 158.8L601.69 158.59L600.87 158.4L600.04 158.25L599.2 158.13L598.35 158.04L597.49 157.99L596.62 157.97L43.46 157.97L42.59 157.99ZM352.38 63.45L351.81 64.25L351.22 65.04L350.61 65.81L349.98 66.56L349.33 67.29L348.66 68.01L347.98 68.72L347.28 69.41L346.56 70.07L345.83 70.73L345.08 71.36L344.32 71.97L343.54 72.57L342.74 73.15L341.93 73.71L341.11 74.24L340.27 74.76L339.42 75.26L338.55 75.73L337.67 76.19L336.78 76.62L335.88 77.03L334.96 77.42L334.04 77.79L333.1 78.13L332.15 78.45L331.19 78.75L330.22 79.02L329.24 79.27L328.25 79.5L327.25 79.7L326.25 79.87L325.23 80.02L324.21 80.14L323.18 80.23L322.14 80.3L321.09 80.34L320.04 80.36L319.33 80.35L318.62 80.31L317.9 80.25L317.17 80.17L316.44 80.07L315.7 79.94L314.95 79.79L314.2 79.62L313.44 79.42L312.67 79.2L311.9 78.95L311.12 78.69L310.33 78.4L309.54 78.09L308.74 77.75L307.93 77.39L307.12 77.01L306.3 76.6L305.48 76.17L304.64 75.72L303.8 75.25L302.96 74.75L302.11 74.23L301.25 73.68L300.38 73.11L299.51 72.52L298.63 71.91L297.75 71.27L296.85 70.61L295.96 69.93L295.05 69.22L294.14 68.49L293.22 67.74L292.3 66.96L291.36 66.16L290.43 65.34L289.48 64.49L288.53 63.62L287.57 62.73L286.61 61.81L212.75 135.66L427.32 135.66L353.47 61.81L352.94 62.64L352.38 63.45ZM317.39 23.97L316.11 24.22L314.87 24.56L313.67 24.99L312.51 25.51L311.39 26.11L310.33 26.78L309.32 27.53L308.37 28.35L307.49 29.24L306.67 30.19L305.92 31.2L305.24 32.26L304.64 33.37L304.12 34.53L303.69 35.74L303.35 36.98L303.1 38.26L302.95 39.57L302.89 40.91L302.95 42.24L303.1 43.55L303.35 44.83L303.69 46.08L304.12 47.28L304.64 48.44L305.24 49.55L305.92 50.61L306.67 51.62L307.49 52.57L308.37 53.46L309.32 54.28L310.33 55.03L311.39 55.71L312.51 56.3L313.67 56.82L314.87 57.25L316.11 57.6L317.39 57.85L318.7 58L320.04 58.05L321.38 58L322.69 57.85L323.96 57.6L325.21 57.25L326.41 56.82L327.57 56.3L328.68 55.71L329.75 55.03L330.75 54.28L331.7 53.46L332.59 52.57L333.41 51.62L334.16 50.61L334.84 49.55L335.44 48.44L335.95 47.28L336.39 46.07L336.73 44.83L336.98 43.55L337.13 42.24L337.18 40.91L337.13 39.57L336.98 38.26L336.73 36.98L336.39 35.74L335.95 34.53L335.44 33.37L334.84 32.26L334.16 31.2L333.41 30.19L332.59 29.24L331.7 28.35L330.75 27.53L329.75 26.78L328.68 26.11L327.57 25.51L326.41 24.99L325.21 24.56L323.96 24.22L322.69 23.97L321.38 23.81L320.04 23.76L318.7 23.81L317.39 23.97Z" id="e1XT71Bwm"></path><path d="M135.68 241.53C139.56 241.53 142.71 244.69 142.71 248.57C142.71 254.73 147.71 259.72 153.87 259.72C160.03 259.72 165.02 254.73 165.02 248.57C165.02 232.39 151.86 219.22 135.68 219.22C133.06 219.22 112.13 219.22 109.51 219.22C93.33 219.22 80.16 232.39 80.16 248.57C80.16 255.51 80.16 311.02 80.16 317.95C80.16 334.14 93.33 347.3 109.51 347.3C112.13 347.3 133.06 347.3 135.68 347.3C151.86 347.3 165.02 334.14 165.02 317.95C165.02 311.79 160.03 306.8 153.87 306.8C147.71 306.8 142.71 311.79 142.71 317.95C142.71 321.84 139.56 324.99 135.68 324.99C133.06 324.99 112.13 324.99 109.51 324.99C105.63 324.99 102.47 321.84 102.47 317.95C102.47 311.02 102.47 255.51 102.47 248.57C102.47 244.69 105.63 241.53 109.51 241.53C114.74 241.53 133.06 241.53 135.68 241.53Z" id="a1BqnS1qJt"></path><path d="M328.48 219.35L329.97 219.5L331.45 219.71L332.9 219.98L334.34 220.3L335.75 220.68L337.14 221.12L338.5 221.6L339.85 222.14L341.16 222.73L342.45 223.36L343.71 224.05L344.94 224.78L346.13 225.56L347.3 226.38L348.43 227.24L349.53 228.15L350.59 229.09L351.61 230.08L352.6 231.11L353.55 232.17L354.45 233.26L355.32 234.4L356.14 235.56L356.91 236.76L357.65 237.99L358.33 239.25L358.97 240.53L359.56 241.85L360.09 243.19L360.58 244.56L361.01 245.95L361.39 247.36L361.72 248.79L361.98 250.25L362.19 251.72L362.35 253.21L362.44 254.72L362.47 256.24L362.47 310.28L362.44 311.81L362.35 313.32L362.19 314.81L361.98 316.28L361.72 317.73L361.39 319.17L361.01 320.58L360.58 321.97L360.09 323.34L359.56 324.68L358.97 325.99L358.33 327.28L357.65 328.54L356.92 329.77L356.14 330.97L355.32 332.13L354.45 333.26L353.55 334.36L352.6 335.42L351.61 336.45L350.59 337.43L349.53 338.38L348.43 339.29L347.3 340.15L346.13 340.97L344.94 341.75L343.71 342.48L342.45 343.17L341.16 343.8L339.85 344.39L338.5 344.93L337.14 345.41L335.75 345.85L334.34 346.23L332.9 346.55L331.45 346.82L329.97 347.03L328.48 347.18L326.97 347.27L325.45 347.3L314.63 347.3L313.11 347.27L311.6 347.18L310.11 347.03L308.63 346.82L307.18 346.55L305.74 346.23L304.33 345.85L302.94 345.41L301.57 344.93L300.23 344.39L298.92 343.8L297.63 343.17L296.37 342.48L295.14 341.75L293.95 340.97L292.78 340.15L291.65 339.29L290.55 338.38L289.49 337.43L288.46 336.45L287.48 335.42L286.53 334.36L285.63 333.26L284.76 332.13L283.94 330.97L283.16 329.77L282.43 328.54L281.75 327.28L281.11 325.99L280.52 324.68L279.99 323.34L279.5 321.97L279.07 320.58L278.69 319.17L278.36 317.73L278.1 316.28L277.88 314.81L277.73 313.32L277.64 311.81L277.61 310.28L277.61 256.25L277.64 254.72L277.73 253.21L277.88 251.72L278.1 250.25L278.36 248.79L278.69 247.36L279.07 245.95L279.5 244.56L279.99 243.19L280.52 241.85L281.11 240.54L281.75 239.25L282.43 237.99L283.16 236.76L283.94 235.56L284.76 234.4L285.63 233.26L286.53 232.17L287.48 231.11L288.46 230.08L289.49 229.1L290.55 228.15L291.65 227.24L292.78 226.38L293.95 225.56L295.14 224.78L296.37 224.05L297.63 223.36L298.92 222.73L300.23 222.14L301.57 221.6L302.94 221.12L304.33 220.68L305.74 220.3L307.18 219.98L308.63 219.71L310.11 219.5L311.6 219.35L313.11 219.26L314.63 219.23L325.45 219.23L326.97 219.26L328.48 219.35ZM314.02 241.54L313.42 241.58L312.83 241.64L312.25 241.72L311.67 241.83L311.1 241.96L310.54 242.11L309.98 242.28L309.44 242.48L308.91 242.69L308.38 242.92L307.87 243.18L307.37 243.45L306.88 243.74L306.41 244.05L305.94 244.37L305.5 244.72L305.06 245.08L304.64 245.45L304.23 245.84L303.84 246.25L303.46 246.67L303.1 247.11L302.76 247.56L302.43 248.02L302.12 248.5L301.83 248.99L301.56 249.49L301.31 250L301.07 250.52L300.86 251.06L300.67 251.6L300.49 252.15L300.34 252.71L300.22 253.28L300.11 253.86L300.03 254.45L299.96 255.04L299.93 255.64L299.92 256.24L299.92 310.28L299.93 310.89L299.96 311.49L300.03 312.08L300.11 312.67L300.22 313.24L300.34 313.81L300.49 314.38L300.67 314.93L300.86 315.47L301.07 316L301.31 316.53L301.56 317.04L301.83 317.54L302.12 318.03L302.43 318.5L302.76 318.97L303.1 319.42L303.46 319.85L303.84 320.27L304.23 320.68L304.64 321.07L305.06 321.45L305.5 321.81L305.94 322.15L306.41 322.48L306.88 322.79L307.37 323.08L307.87 323.35L308.38 323.6L308.91 323.84L309.44 324.05L309.98 324.24L310.54 324.42L311.1 324.57L311.67 324.7L312.25 324.8L312.83 324.89L313.42 324.95L314.02 324.98L314.63 324.99L325.45 324.99L325.85 324.99L326.26 324.96L326.66 324.91L327.06 324.85L327.45 324.76L327.85 324.66L328.24 324.54L328.63 324.41L329.02 324.25L329.41 324.08L329.8 323.88L330.18 323.67L330.56 323.44L330.94 323.19L331.32 322.93L331.7 322.64L332.07 322.34L332.44 322.02L332.81 321.68L333.18 321.32L333.55 320.94L333.91 320.54L334.28 320.13L334.64 319.7L335 319.25L335.36 318.78L335.71 318.29L336.06 317.79L336.42 317.26L336.77 316.72L337.11 316.16L337.46 315.58L337.8 314.98L338.15 314.36L338.49 313.73L338.83 313.08L339.16 312.41L339.5 311.72L339.83 311.01L340.16 310.28L340.16 256.24L340.15 255.64L340.11 255.04L340.05 254.45L339.97 253.86L339.86 253.28L339.73 252.71L339.58 252.15L339.41 251.6L339.22 251.06L339 250.52L338.77 250L338.52 249.49L338.24 248.99L337.95 248.5L337.64 248.02L337.32 247.56L336.98 247.11L336.61 246.67L336.24 246.25L335.85 245.84L335.44 245.45L335.02 245.08L334.58 244.72L334.13 244.37L333.67 244.05L333.19 243.74L332.7 243.45L332.2 243.18L331.69 242.92L331.17 242.69L330.64 242.48L330.09 242.28L329.54 242.11L328.98 241.96L328.41 241.83L327.83 241.72L327.25 241.64L326.65 241.58L326.05 241.54L325.45 241.53L314.63 241.53L314.02 241.54Z" id="b1g0QC5Jj6"></path><path d="M413.93 219.23C393.2 219.23 376.34 236.09 376.34 256.82C376.34 277.55 393.2 294.42 413.93 294.42C414.9 294.42 422.63 294.42 423.6 294.42C432.03 294.42 438.88 301.28 438.88 309.71C438.88 318.14 432.03 324.99 423.6 324.99C422.04 324.99 409.63 324.99 408.07 324.99C402.87 324.99 398.64 320.76 398.64 315.56C398.64 315.22 398.64 312.49 398.64 312.15C398.64 305.99 393.65 300.99 387.49 300.99C381.33 300.99 376.34 305.99 376.34 312.15C376.34 312.49 376.34 315.22 376.34 315.56C376.34 333.06 390.57 347.3 408.07 347.3C409.63 347.3 422.04 347.3 423.6 347.3C444.33 347.3 461.19 330.44 461.19 309.71C461.19 288.98 444.33 272.11 423.6 272.11C422.63 272.11 414.9 272.11 413.93 272.11C405.5 272.11 398.64 265.25 398.64 256.82C398.64 248.39 405.5 241.53 413.93 241.53C415.48 241.53 427.9 241.53 429.45 241.53C434.65 241.53 438.88 245.77 438.88 250.97C438.88 251.28 438.88 253.79 438.88 254.1C438.88 260.26 443.88 265.26 450.04 265.26C456.2 265.26 461.19 260.26 461.19 254.1C461.19 253.79 461.19 251.28 461.19 250.97C461.19 233.46 446.95 219.23 429.45 219.23C426.35 219.23 415.48 219.23 413.93 219.23Z" id="d4tTS5TKRZ"></path><path d="M241.44 318.13C241.44 318.58 241.44 320.87 241.44 324.99L201.19 324.99C201.19 268.23 201.19 236.69 201.19 230.38C201.19 224.22 196.2 219.23 190.04 219.23C183.88 219.23 178.89 224.22 178.89 230.38C178.89 240.96 178.89 325.57 178.89 336.15C178.89 342.31 183.88 347.3 190.04 347.3C196.3 347.3 246.34 347.3 252.59 347.3C258.75 347.3 263.75 342.31 263.75 336.15C263.75 334.35 263.75 319.93 263.75 318.13C263.75 311.97 258.75 306.97 252.59 306.97C246.43 306.97 241.44 311.97 241.44 318.13Z" id="d1loipZ3pV"></path><path d="M559.92 230.38C559.92 224.22 554.92 219.22 548.76 219.22C542.51 219.22 492.47 219.22 486.21 219.22C480.05 219.22 475.06 224.22 475.06 230.38C475.06 240.96 475.06 325.57 475.06 336.15C475.06 342.31 480.05 347.3 486.21 347.3C492.47 347.3 542.51 347.3 548.76 347.3C554.92 347.3 559.92 342.31 559.92 336.15C559.92 329.99 554.92 324.99 548.76 324.99C545.34 324.99 528.2 324.99 497.36 324.99L497.36 294.42C509.44 294.42 516.14 294.42 517.49 294.42C523.65 294.42 528.64 289.42 528.64 283.26C528.64 277.1 523.65 272.11 517.49 272.11C516.14 272.11 509.44 272.11 497.36 272.11L497.36 241.53L548.76 241.53C556.2 238.2 559.92 234.49 559.92 230.38Z" id="a6FAFBSYx"></path></defs><g><g><g><use xlink:href="#e1XT71Bwm" opacity="1" fill="#ffffff" fill-opacity="1"></use><g><use xlink:href="#e1XT71Bwm" opacity="1" fill-opacity="0" stroke="#000000" stroke-width="1" stroke-opacity="0"></use></g></g><g><use xlink:href="#a1BqnS1qJt" opacity="1" fill="#ffffff" fill-opacity="1"></use><g><use xlink:href="#a1BqnS1qJt" opacity="1" fill-opacity="0" stroke="#000000" stroke-width="1" stroke-opacity="0"></use></g></g><g><use xlink:href="#b1g0QC5Jj6" opacity="1" fill="#ffffff" fill-opacity="1"></use><g><use xlink:href="#b1g0QC5Jj6" opacity="1" fill-opacity="0" stroke="#000000" stroke-width="1" stroke-opacity="0"></use></g></g><g><use xlink:href="#d4tTS5TKRZ" opacity="1" fill="#ffffff" fill-opacity="1"></use><g><use xlink:href="#d4tTS5TKRZ" opacity="1" fill-opacity="0" stroke="#000000" stroke-width="1" stroke-opacity="0"></use></g></g><g><use xlink:href="#d1loipZ3pV" opacity="1" fill="#ffffff" fill-opacity="1"></use><g><use xlink:href="#d1loipZ3pV" opacity="1" fill-opacity="0" stroke="#000000" stroke-width="1" stroke-opacity="0"></use></g></g><g><use xlink:href="#a6FAFBSYx" opacity="1" fill="#ffffff" fill-opacity="1"></use><g><use xlink:href="#a6FAFBSYx" opacity="1" fill-opacity="0" stroke="#000000" stroke-width="1" stroke-opacity="0"></use></g></g></g></g></svg>